<svg width="147" height="131" viewBox="0 0 147 131" fill="none" xmlns="http://www.w3.org/2000/svg">
<path d="M103.893 1.04524e-06C108.315 1.04524e-06 112.402 2.35934 114.613 6.18927L145.117 59.0249C147.328 62.8548 147.328 67.5735 145.117 71.4034L114.613 124.239C112.402 128.069 108.315 130.428 103.893 130.428H42.8832C38.4608 130.428 34.3743 128.069 32.1631 124.239L1.65841 71.4034C-0.552804 67.5735 -0.552803 62.8548 1.65842 59.0249L32.1631 6.18927C34.3743 2.35934 38.4608 0 42.8832 0L103.893 1.04524e-06Z" fill="url(#paint0_linear_1596_64628)"/>
<path d="M114.166 6.4472L144.671 59.2828C146.789 62.9532 146.789 67.4752 144.671 71.1456L114.166 123.981C112.047 127.652 108.13 129.913 103.893 129.913H42.8831C38.6449 129.913 34.7287 127.652 32.6096 123.981L2.10494 71.1456C-0.0141469 67.4752 -0.0141449 62.9532 2.10494 59.2828L32.6096 6.4472C34.7287 2.77684 38.6449 0.515808 42.8831 0.515808H103.893C108.13 0.515808 112.047 2.77684 114.166 6.4472Z" stroke="white" stroke-opacity="0.05"/>
<defs>
<linearGradient id="paint0_linear_1596_64628" x1="111.039" y1="3.65463e-06" x2="35.7365" y2="130.428" gradientUnits="userSpaceOnUse">
<stop stop-color="#141416"/>
<stop offset="1" stop-color="#2D1B16"/>
</linearGradient>
</defs>
</svg>
