<svg width="95" height="83" viewBox="0 0 95 83" fill="none" xmlns="http://www.w3.org/2000/svg">
<path d="M60.4744 9C64.0482 9 67.3503 10.9072 69.1362 14.0028L82.117 36.5028C83.9012 39.5954 83.9012 43.4047 82.117 46.4973L69.1362 68.9972C67.3503 72.0928 64.0482 74 60.4744 74H34.5257C30.9519 74 27.6497 72.0928 25.8638 68.9972L12.883 46.4973C11.0988 43.4047 11.0988 39.5954 12.883 36.5028L25.8638 14.0028C27.6497 10.9072 30.9519 9 34.5257 9H60.4744Z" fill="#F09A38"/>
<path d="M65.4511 0.5C68.8581 0.5 72.0042 2.32438 73.6964 5.28134L91.7235 36.7814C93.3965 39.7047 93.3965 43.2954 91.7235 46.2187L73.6964 77.7187C72.0042 80.6756 68.8581 82.5 65.4511 82.5H29.5489C26.142 82.5 22.9959 80.6756 21.3037 77.7187L3.27654 46.2187C1.60354 43.2954 1.60354 39.7047 3.27654 36.7814L21.3037 5.28133C22.9959 2.32438 26.142 0.5 29.5489 0.5H65.4511Z" stroke="white" stroke-opacity="0.15"/>
<path fill-rule="evenodd" clip-rule="evenodd" d="M41 48.9284L41 34.0716C41 32.9275 41.9447 32 43.1099 32C43.6695 32 44.2062 32.2183 44.6019 32.6068L55.382 40.0352C56.206 40.8442 56.206 42.1558 55.382 42.9649L44.6019 50.3932C43.7779 51.2023 42.442 51.2023 41.618 50.3932C41.2223 50.0047 41 49.4778 41 48.9284Z" fill="#151416"/>
</svg>
