<svg width="18" height="16" viewBox="0 0 18 16" fill="none" xmlns="http://www.w3.org/2000/svg">
<path d="M4 11C4.55228 11 5 11.4477 5 12C5 12.5523 4.55228 13 4 13H3C1.34315 13 0 11.6569 0 10V3C0 1.34315 1.34315 0 3 0H15C16.6569 0 18 1.34315 18 3V10C18 11.6569 16.6569 13 15 13H14C13.4477 13 13 12.5523 13 12C13 11.4477 13.4477 11 14 11H15C15.5523 11 16 10.5523 16 10V3C16 2.44772 15.5523 2 15 2H3C2.44772 2 2 2.44772 2 3V10C2 10.5523 2.44772 11 3 11H4Z" fill="white"/>
<path fill-rule="evenodd" clip-rule="evenodd" d="M5 16H13L9 11L5 16Z" fill="white"/>
</svg>
