<svg width="65" height="12" viewBox="0 0 65 12" fill="none" xmlns="http://www.w3.org/2000/svg">
<g clip-path="url(#clip0_916_64740)">
<path d="M2.05838 0.324996C0.910043 0.736663 0.281709 1.495 0.108376 2.70833C-0.129957 4.26833 0.108376 9.555 0.433376 10.2483C0.888376 11.2017 2.10171 11.7 3.90004 11.7C6.65171 11.7 7.80004 10.7033 7.80004 8.29833V7.04166L6.17504 7.10666L4.55004 7.19333V8.34166C4.55004 9.59833 4.11671 10.27 3.61838 9.77166C3.31504 9.46833 3.14171 5.35166 3.35838 3.33666C3.48838 2.05833 3.55338 1.92833 3.96504 1.99333C4.39838 2.05833 4.44171 2.21 4.50671 3.61833L4.57171 5.2H6.19671H7.84338L7.75671 3.445C7.69171 1.79833 7.64838 1.66833 6.99838 1.08333C5.82838 0.0216627 3.79171 -0.281671 2.05838 0.324996Z" fill="white"/>
<path d="M9.64172 0.476667C9.59839 0.628334 9.25172 2.86 8.88339 5.41667C8.51506 7.97334 8.14672 10.4 8.08172 10.7683L7.97339 11.4833H9.51172C11.3101 11.4833 11.0717 11.9817 11.6784 6.97667C11.9167 5.02667 12.1334 3.38 12.1984 3.33667C12.2634 3.27167 12.3717 3.9 12.4367 4.70167C12.5234 5.50333 12.6534 6.5 12.7184 6.89C12.8051 7.41 12.7617 7.58333 12.5017 7.58333C12.1767 7.58333 11.9167 8.19 11.9167 9.035C11.9167 9.425 12.0467 9.53333 12.4367 9.53333C12.9567 9.53333 13.2167 9.98834 13.2167 10.985C13.2167 11.4617 13.3034 11.4833 14.7984 11.4833H16.3801L15.6867 7.43167C15.3184 5.17833 14.8851 2.64333 14.7334 1.77667L14.4734 0.216668H12.1117C10.4001 0.216668 9.70672 0.303334 9.64172 0.476667Z" fill="white"/>
<path d="M16.9001 5.85V11.4833H19.6085H22.3168V10.4V9.31666H21.3418H20.3668V4.76666V0.216663H18.6335H16.9001V5.85Z" fill="white"/>
<path d="M23.1833 0.259996C23.1833 0.303329 23.1616 2.83833 23.1183 5.915L23.075 11.4833H25.74H28.3833V10.4V9.31666H27.4083H26.4333V4.76666V0.216663H24.8083C23.92 0.216663 23.1833 0.23833 23.1833 0.259996Z" fill="white"/>
<path d="M32.5 5.82833V11.4833H35.5333C38.935 11.4833 39.7367 11.2667 40.0183 10.2267C40.1267 9.90166 40.1917 7.93 40.1917 5.85C40.1917 0.476663 40.1267 0.389996 35.49 0.259995L32.5 0.173329V5.82833ZM36.725 5.85C36.725 9.38166 36.725 9.425 36.2483 9.49L35.75 9.555V5.85V2.145L36.2483 2.21C36.725 2.275 36.725 2.31833 36.725 5.85Z" fill="white"/>
<path d="M41.015 5.005C41.1233 9.27333 41.1667 9.88 41.535 10.3783C42.2067 11.2883 43.2683 11.7 44.915 11.7C46.54 11.7 47.385 11.375 48.0783 10.4867C48.5117 9.945 48.5333 9.64166 48.5333 5.07V0.216663H46.9083H45.2833L45.24 5.02666C45.175 9.14333 45.1317 9.85833 44.85 9.85833C44.5683 9.85833 44.525 9.14333 44.46 5.02666L44.4167 0.216663H42.64H40.885L41.015 5.005Z" fill="white"/>
<path d="M49.4001 1.27833V2.36166L50.3318 2.42666L51.2418 2.49166L51.3068 6.97666L51.3501 11.4833H52.9751H54.6001L54.6435 6.97666L54.7085 2.49166L55.6401 2.42666L56.5501 2.36166V1.27833V0.216663H52.9751H49.4001V1.27833Z" fill="white"/>
<path d="M57.2652 0.498329C57.3302 0.649996 57.8718 2.36166 58.4785 4.26833C59.4752 7.38833 59.5835 7.93 59.5835 9.72833V11.7H61.1002H62.6168V9.57666C62.5952 7.62666 62.5085 7.215 61.4252 3.9L60.2768 0.324996L58.7168 0.259996C57.4602 0.216662 57.1785 0.259996 57.2652 0.498329Z" fill="white"/>
<path d="M61.7718 1.01833C61.6418 1.47333 61.5334 2.015 61.5334 2.21C61.5334 2.665 62.5951 6.11 62.8118 6.32667C62.8984 6.41333 63.3968 5.09167 63.9384 3.35833L64.9351 0.216667H63.4618H61.9884L61.7718 1.01833Z" fill="white"/>
<path d="M27.755 3.12C27.6033 3.315 27.5166 4.03 27.56 5.005C27.625 6.54333 27.6466 6.60833 28.2533 6.825C28.7733 6.99833 28.925 6.955 29.2716 6.52167C29.7916 5.89333 29.835 3.98667 29.3366 3.29333C28.9683 2.75167 28.1233 2.665 27.755 3.12ZM28.535 5.56833C28.4916 6.02333 28.4483 5.69833 28.4483 4.875C28.4483 4.03 28.4916 3.68333 28.535 4.05167C28.5783 4.44167 28.5783 5.135 28.535 5.56833Z" fill="white"/>
<path d="M29.9868 3.09833C29.9218 3.27167 29.9001 4.16 29.9434 5.11333C30.0084 6.54333 30.0734 6.825 30.3984 6.89C30.7018 6.955 30.7668 6.80333 30.7668 6.08833C30.7668 5.43833 30.8534 5.2 31.0918 5.2C31.2651 5.2 31.4168 5.07 31.4168 4.89667C31.4168 4.72333 31.2651 4.55 31.0918 4.46333C30.9184 4.39833 30.7668 4.20333 30.7668 4.00833C30.7668 3.835 30.9184 3.68333 31.0918 3.68333C31.2651 3.68333 31.4168 3.48833 31.4168 3.25C31.4168 2.90333 31.2651 2.81667 30.7668 2.81667C30.3984 2.81667 30.0518 2.94667 29.9868 3.09833Z" fill="white"/>
<path d="M63.1151 10.9633C62.9201 11.4617 63.6134 12.0683 64.0684 11.7867C64.2634 11.6567 64.4801 11.4183 64.5234 11.245C64.5667 11.0717 64.4801 11.1367 64.3067 11.3533C63.9167 11.8517 63.2451 11.6783 63.2884 11.115C63.3101 10.7467 63.3317 10.7467 63.4184 11.0933C63.5267 11.4833 63.7434 11.5917 63.9817 11.3533C64.1117 11.2233 63.6351 10.6167 63.3751 10.6167C63.3101 10.6167 63.2017 10.7683 63.1151 10.9633Z" fill="white"/>
</g>
<defs>
<clipPath id="clip0_916_64740">
<rect width="65" height="11.9167" fill="white"/>
</clipPath>
</defs>
</svg>
