<svg width="65" height="29" viewBox="0 0 65 29" fill="none" xmlns="http://www.w3.org/2000/svg">
<g clip-path="url(#clip0_916_64848)">
<path d="M32.8898 0.346668C32.1965 0.715002 31.9581 1.43 32.1315 2.51334C32.2398 3.20667 32.2181 3.25 31.7415 3.12C31.4598 3.055 31.0481 3.09834 30.8098 3.22833C30.2031 3.55334 29.4665 5.17834 29.4665 6.21834C29.4665 7.43167 29.2931 7.8 28.7081 7.8C28.1015 7.8 27.9498 8.16834 27.9498 9.57667C27.9498 10.465 28.0148 10.6817 28.3831 10.7683C28.9031 10.8983 28.9681 11.2667 28.4698 11.2667C28.1448 11.2667 28.1231 11.4617 28.2315 12.61C28.3181 13.6067 28.2748 14.0833 28.0365 14.3867C27.6681 14.885 27.6465 15.6433 27.9715 15.9683C28.1448 16.1417 28.1448 16.5317 27.9715 17.3767C27.8198 18.0267 27.7765 18.6983 27.8415 18.8933C27.9065 19.0667 27.6898 19.695 27.3431 20.28C26.5848 21.6017 25.9131 23.53 25.9781 24.3317C25.9998 24.6567 25.8481 25.5233 25.6531 26.26C25.3281 27.5167 25.3281 27.625 25.6965 27.885C26.1081 28.1883 26.6281 28.2533 27.1698 28.0367C27.4298 27.9283 27.4731 27.69 27.3648 26.9533C27.2348 25.9133 27.6031 24.7 28.0798 24.7C28.2531 24.7 28.4265 24.44 28.5131 24.0933C28.5781 23.7683 28.7731 23.14 28.9465 22.7067C29.0981 22.2517 29.1848 21.775 29.1198 21.6017C29.0765 21.45 29.3581 20.865 29.7915 20.3017C30.2031 19.76 30.5498 19.1533 30.5498 18.98C30.5498 18.59 31.1781 16.9 31.4815 16.5317C31.7631 16.1633 32.8681 17.0517 33.5831 18.1783C33.8648 18.6767 34.3631 19.1533 34.6665 19.24C35.1865 19.4133 35.2081 19.5 35.2731 21.58C35.2948 22.75 35.3381 24.5267 35.3381 25.5017C35.3381 26.4983 35.4248 27.3 35.4898 27.3217C36.3565 27.43 37.7648 27.56 38.4581 27.6033C39.5198 27.625 39.6281 27.17 38.6965 26.65C38.3498 26.4767 37.8731 26.065 37.6565 25.7617C37.2665 25.2417 37.2448 25.0467 37.5048 22.1867L37.7648 19.175L37.0715 17.7233C36.7031 16.9217 36.3998 16.1633 36.3998 16.055C36.3998 15.9467 36.0531 15.405 35.6415 14.8633C34.7965 13.7367 34.6231 12.7833 35.2948 12.7833C35.6198 12.7833 35.7715 12.545 35.9448 11.7C36.2698 10.1833 36.2481 9.88 35.7498 9.25167C35.1215 8.45 35.5548 8.34167 36.8115 8.99167C37.4181 9.295 38.0248 9.53334 38.1981 9.53334C38.6531 9.53334 39.8665 8.14667 39.8665 7.62667C39.8665 7.36667 39.9748 7.15 40.0831 7.15C40.2348 7.15 40.2781 6.86834 40.1915 6.435C40.1048 5.93667 40.1915 5.61167 40.4731 5.265C40.8415 4.85334 41.1665 4.78834 43.9398 4.63667C45.6298 4.55 47.0165 4.39833 47.0165 4.31167C47.0165 4.095 46.6698 4.05167 45.4565 4.11667C44.9798 4.13834 44.6331 4.05167 44.6331 3.92167C44.6331 3.79167 44.4815 3.68334 44.3081 3.68334C44.1131 3.68334 43.9615 3.46667 43.9615 3.185C43.9398 2.795 43.8965 2.83834 43.7665 3.35834C43.6798 3.705 43.5931 3.87834 43.5715 3.72667C43.5498 3.53167 42.7698 3.46667 40.4081 3.46667C37.5698 3.46667 37.2665 3.42334 37.2665 3.09834C37.2665 2.795 37.2015 2.81667 36.9198 3.20667C36.5298 3.77 35.5331 3.85667 35.5331 3.33667C35.5331 3.14167 35.7281 2.83834 35.9881 2.62167C36.3781 2.31833 36.3998 2.145 36.2481 1.51667C35.9231 0.238335 34.1898 -0.368332 32.8898 0.346668ZM38.9565 5.46C38.8915 5.61167 38.6965 5.76334 38.5015 5.80667C38.2415 5.85 38.1765 5.785 38.2631 5.54667C38.4148 5.135 39.0865 5.07 38.9565 5.46ZM38.5231 6.305C38.4798 6.435 38.3498 6.52167 38.2415 6.52167C38.1331 6.52167 38.0031 6.435 37.9598 6.305C37.9165 6.175 38.0465 6.06667 38.2415 6.06667C38.4365 6.06667 38.5665 6.175 38.5231 6.305Z" fill="white"/>
<path d="M0.71486 13.7367L0.108193 14.2567L0.0431931 17.7667C-0.0651403 23.2267 -0.108474 23.1833 5.54653 23.1833H9.35986L10.0965 22.4467C11.4615 21.0817 11.3315 21.0167 6.82486 21.0167H2.81653V18.2V15.3833H6.82486C9.48986 15.3833 10.8332 15.2967 10.8332 15.1667C10.8332 14.6467 10.1832 13.715 9.64153 13.4767C9.27319 13.3033 7.75653 13.2167 5.19986 13.2167C1.40819 13.2167 1.29986 13.2383 0.71486 13.7367Z" fill="white"/>
<path d="M13.4117 13.845C12.8267 14.43 12.7834 14.6033 12.7834 16.1417C12.7834 19.0667 13.1301 19.2833 17.9834 19.2833H21.4501V20.15V21.0167H17.1167C12.4584 21.0167 12.4151 21.0167 13.0001 22.1217C13.4984 23.0317 14.2784 23.1833 18.3084 23.1833C23.4651 23.1833 23.8334 22.9667 23.8334 19.9117C23.8334 18.5033 23.7901 18.33 23.2051 17.745L22.5767 17.1167H18.8934C16.8784 17.1167 15.1884 17.0733 15.1451 17.0083C15.0801 16.965 15.0801 16.575 15.1234 16.1417L15.2101 15.3833H19.4134C23.5301 15.3833 23.6167 15.3833 23.6167 14.9283C23.6167 14.69 23.3351 14.1917 22.9884 13.845L22.3601 13.2167H18.2001H14.0401L13.4117 13.845Z" fill="white"/>
<path d="M41.578 13.845L40.9497 14.4733V18.0917C40.9497 20.15 41.0364 21.8833 41.1664 22.1217C41.6647 23.0317 42.4447 23.1833 46.4747 23.1833C51.848 23.1833 51.9997 23.075 51.9997 19.5217V17.3333H48.4247C44.633 17.3333 44.4814 17.3767 45.153 18.33C45.413 18.6767 45.803 18.7633 47.7097 18.85L49.9414 18.9583L50.0064 19.9767L50.0714 21.0167H46.6047H43.1164V18.2V15.3833H47.558C51.913 15.3833 51.9997 15.3833 51.9997 14.9283C51.9997 14.69 51.718 14.1917 51.3714 13.845L50.743 13.2167H46.4747H42.2064L41.578 13.845Z" fill="white"/>
<path d="M54.8815 13.7367L54.2748 14.2567L54.2098 17.7667C54.1015 23.205 54.0581 23.1833 59.6698 23.1833H63.4831L64.1765 22.555L64.8915 21.9267L64.9565 18.525C65.0648 13.195 65.1081 13.2167 59.3881 13.2167C55.5748 13.2167 55.4665 13.2383 54.8815 13.7367ZM62.8331 18.2V21.0167H59.5831H56.3331V18.2V15.3833H59.5831H62.8331V18.2Z" fill="white"/>
</g>
<defs>
<clipPath id="clip0_916_64848">
<rect width="65" height="28.1667" fill="white"/>
</clipPath>
</defs>
</svg>
