<svg width="42" height="40" viewBox="0 0 42 40" fill="none" xmlns="http://www.w3.org/2000/svg">
<path d="M41.2529 9.28895C41.0906 1.84536 41.0781 3.45647 41.2404 1.13347C41.2529 0.99609 41.1405 0.871198 41.0031 0.871198C29.6254 0.109354 29.2008 0.021929 28.3141 0.021929C12.8024 0.021929 20.9454 -0.227856 0.238244 0.958622C0.100863 0.971111 -0.0115397 1.08351 0.000949579 1.2209C1.3373 26.1869 1.28734 22.1154 0.600432 38.7511C0.600432 38.876 0.675368 38.9759 0.80026 39.0009C2.34893 39.3631 2.07416 39.2132 5.69605 39.2257L12.4777 38.5013C12.5152 38.5013 21.8446 40 21.8696 40C21.8821 40 21.8821 40 21.8946 40C32.8227 39.1008 29.7004 39.3256 36.7443 38.9384L40.8907 39.7502C41.0531 39.7877 41.203 39.6628 41.203 39.5004C41.0906 31.3824 41.2529 9.28895 41.2529 9.28895ZM24.4299 8.68946C24.4549 8.67698 24.5048 8.67697 24.5548 8.652L27.5023 8.00256C29.0135 7.62788 29.2383 7.54045 30.5247 6.95346C31.1241 7.15329 32.7602 8.04002 33.1724 8.53959C33.4471 8.8768 33.4222 8.95174 33.3472 9.31393C33.3347 9.38886 33.3098 9.4638 33.2973 9.55122C33.2973 9.55122 33.2973 9.56371 33.2973 9.5762L32.6478 14.5219C32.0109 14.5469 31.9484 14.497 31.7736 14.3346C31.6986 14.2722 31.6112 14.1847 31.4489 14.0848C30.4747 13.4479 27.2775 11.1498 26.2783 10.3505L24.2925 8.80187L24.305 8.78938C24.33 8.7644 24.3425 8.73942 24.355 8.71444C24.3675 8.70195 24.4174 8.70195 24.4299 8.68946ZM29.0259 33.593C28.9635 33.5306 4.24729 7.99007 4.2348 7.9526L6.39544 6.34149L36.5695 25.8247C36.3197 26.5241 36.2198 27.3234 36.0699 27.9853C35.5453 30.3333 34.8584 31.3574 33.7968 33.5805C32.2732 33.643 29.1384 33.6305 29.0259 33.593ZM6.54531 26.6865C6.82008 26.037 7.20724 24.9879 7.53196 24.4634C9.10561 25.4251 15.2753 31.4698 15.8123 32.2816C15.5126 32.394 14.2387 32.5689 12.1155 33.3932C10.7667 33.9177 9.50526 34.4048 8.28132 34.0052C8.15642 33.9677 7.8317 33.6929 7.34462 33.2933C6.45789 32.5564 5.65858 32.0194 5.19648 31.7446C4.40965 31.2825 4.53454 31.3824 6.54531 26.6865Z" fill="white"/>
</svg>
