<svg width="64" height="29" viewBox="0 0 64 29" fill="none" xmlns="http://www.w3.org/2000/svg">
<path d="M53.2753 21.8894C53.4802 22.0748 53.6363 22.2212 53.8022 22.3675C54.612 23.1285 55.4901 23.7139 56.5536 23.8701C57.6268 24.0262 58.6806 24.0164 59.5879 23.1871C60.027 22.7968 60.3099 22.2797 60.3782 21.6553C60.4173 21.3626 60.3587 21.0211 60.2319 20.7772C59.9489 20.1722 59.4416 19.8015 58.9147 19.499C57.9976 18.9722 57.0609 18.5136 56.1633 17.9574C55.6267 17.6257 55.0901 17.2354 54.6413 16.7574C53.5778 15.6158 53.5583 13.8596 54.5144 12.601C55.1974 11.6838 56.1145 11.2448 57.1195 11.1179C58.3196 10.9423 59.5294 11.0301 60.7197 11.3521C61.1295 11.4692 61.149 11.5277 61.149 12.0058C61.149 12.6205 61.149 13.2449 61.1393 13.8596C61.1393 13.9864 61.1198 14.123 61.1002 14.2987C60.9929 14.2108 60.9441 14.1523 60.8856 14.084C60.1734 13.362 59.3343 13.001 58.3976 12.9522C57.7927 12.9132 57.1878 12.9522 56.6024 13.1864C56.2609 13.3327 55.9584 13.5376 55.7828 13.9279C55.5096 14.484 55.5584 14.9426 55.9389 15.4109C56.3877 15.9671 56.9536 16.3086 57.5488 16.611C58.5635 17.1476 59.6075 17.6647 60.6026 18.2794C62.5247 19.4893 62.4369 21.7333 61.7637 22.9919C61.2271 24.0066 60.4173 24.6604 59.4709 25.1287C58.1244 25.7824 56.739 25.6946 55.3633 25.4311C54.9437 25.3531 54.5144 25.236 54.1046 25.0994C53.9876 25.0604 53.8412 24.9238 53.8217 24.7969C53.6266 23.8896 53.4607 22.9627 53.2753 22.0553C53.246 22.0553 53.2558 22.0163 53.2753 21.8894Z" fill="white"/>
<path d="M10.3064 25.3336C10.521 25.0604 10.7162 24.7774 10.9503 24.514C11.0186 24.4359 11.165 24.4359 11.2821 24.4359C15.9653 24.4359 20.6486 24.4457 25.3318 24.4652C26.5222 24.4652 27.7027 24.475 28.8931 24.553C29.4882 24.5921 30.0834 24.7677 30.6493 24.9433C31.2737 25.1579 31.7616 25.597 31.9762 26.4361C32.0445 26.319 32.0933 26.2605 32.1128 26.2019C32.3762 25.4994 32.8543 25.1189 33.4592 24.8945C34.3569 24.5628 35.2837 24.514 36.2106 24.514C41.5769 24.4847 46.9529 24.475 52.3288 24.4457C52.4752 24.4457 52.6118 24.4555 52.7679 24.4359C52.9923 24.3969 53.1289 24.475 53.1484 24.7677C53.1484 24.836 53.1679 24.8848 53.1874 24.9531C53.2948 25.4897 53.2948 25.5092 52.7972 25.558C52.3776 25.597 51.9678 25.6263 51.5385 25.6263C46.2211 25.636 40.9037 25.636 35.5862 25.636C34.7081 25.636 33.8593 25.8507 33.1177 26.4166C32.5909 26.8264 32.2396 27.3825 32.0933 28.085C32.0835 28.1338 32.0738 28.1728 32.0445 28.2313C32.0445 28.2411 32.025 28.2606 31.986 28.2801C31.9664 28.2021 31.9177 28.1338 31.9079 28.0557C31.6933 27.0508 31.0981 26.4361 30.298 26.0458C29.6834 25.7434 29.0199 25.636 28.3564 25.6263C25.3904 25.6165 22.4146 25.636 19.4485 25.636C16.8922 25.6263 14.3359 25.597 11.7894 25.558C11.3113 25.5482 10.8333 25.4799 10.3552 25.4311C10.3162 25.4019 10.3064 25.3628 10.3064 25.3336Z" fill="white"/>
<path d="M24.444 18.2404C24.5709 18.2306 24.6392 18.2014 24.7075 18.2014C25.4295 18.2014 26.1319 18.2014 26.8539 18.2014C27.0491 18.2014 27.1174 18.2697 27.1174 18.5038C27.1174 20.0844 27.1174 21.6553 27.1174 23.2261C27.1174 23.4895 27.0393 23.6164 26.7856 23.6847C25.5856 23.9579 24.3757 24.0749 23.1561 23.9969C21.8682 23.9188 20.6291 23.5578 19.5851 22.6114C17.4582 20.7284 17.3118 16.9135 19.2924 14.7279C20.2291 13.684 21.3804 13.1766 22.6585 13.0205C23.7708 12.8937 24.8733 12.9327 25.9661 13.1766C26.0929 13.2059 26.1905 13.2156 26.1905 13.4108C26.171 14.0255 26.1417 14.6401 26.1222 15.3036C25.9953 15.2646 25.8978 15.2548 25.8002 15.2158C24.7562 14.8255 23.7123 14.5816 22.6097 14.7182C20.0047 15.0499 19.1754 17.9477 20.1803 20.1527C20.9608 21.8504 22.2585 22.5529 23.8781 22.4943C24.2782 22.4846 24.6782 22.3773 25.0782 22.3382C25.2733 22.309 25.3319 22.2114 25.3221 21.9967C25.3221 21.2162 25.3319 20.4259 25.3221 19.6551C25.3221 19.5088 25.2538 19.3429 25.1758 19.2161C24.9514 18.8843 24.7074 18.5819 24.444 18.2404Z" fill="white"/>
<path d="M34.8252 23.4895C35.0301 23.2944 35.235 23.0798 35.4691 22.8944C35.6545 22.7383 35.7326 22.5529 35.7228 22.2895C35.7131 19.7039 35.7228 17.1379 35.7228 14.5621C35.7228 14.2987 35.6545 14.1035 35.4789 13.9474C35.3325 13.8206 35.196 13.684 35.0496 13.5376C35.0691 13.5084 35.0984 13.4888 35.1081 13.4693C35.1179 13.4596 35.1277 13.4303 35.1472 13.4303C35.8106 13.4303 36.4741 13.401 37.118 13.4303C37.2546 13.4303 37.401 13.6059 37.5083 13.723C38.923 15.3719 40.328 17.011 41.7428 18.6697C41.8111 18.7477 41.8306 18.8648 41.8793 18.9624C41.9281 18.9331 41.9672 18.8941 42.0159 18.8746C42.0159 18.7185 42.0159 18.5624 42.0159 18.3965C42.0159 16.9525 42.0159 15.489 42.0159 14.0352C42.0159 13.2937 41.9769 13.4303 42.5428 13.4205C43.0989 13.4205 43.6648 13.4205 44.221 13.4205C44.2307 13.4498 44.2405 13.4693 44.26 13.5084C44.1136 13.6352 43.9771 13.7815 43.8307 13.8986C43.5868 14.084 43.5087 14.3182 43.5087 14.6597C43.5185 17.4891 43.5087 20.3186 43.5087 23.1676C43.5087 23.3432 43.5087 23.5091 43.5087 23.6847C43.4697 23.6944 43.4502 23.7237 43.4209 23.7335C41.4013 21.2065 39.3816 18.6794 37.3132 16.0939C37.3034 16.2793 37.2937 16.3964 37.2937 16.5037C37.2937 18.738 37.2937 20.982 37.2937 23.2066C37.2937 23.4993 37.2351 23.5969 36.9619 23.5969C36.3668 23.5676 35.7618 23.5969 35.1667 23.5871C35.0789 23.5871 34.9715 23.5773 34.8837 23.5773C34.8545 23.5481 34.835 23.5188 34.8252 23.4895Z" fill="white"/>
<path d="M44.7478 23.4408C45.46 22.6407 45.4698 21.665 45.4698 20.6893C45.4796 19.1087 45.4796 17.5379 45.4796 15.9671C45.4796 14.5035 45.4796 14.5035 44.7966 13.3425C44.8844 13.3327 44.9527 13.3132 45.0405 13.3132C46.3772 13.3132 47.7041 13.3522 49.0408 13.3132C52.0264 13.2352 54.0167 16.6013 52.9045 19.9478C52.3874 21.4894 51.4995 22.6505 50.1335 23.2163C49.8116 23.3432 49.4603 23.431 49.1188 23.431C47.7529 23.47 46.3869 23.47 45.021 23.4798C44.9234 23.4798 44.8746 23.4505 44.7478 23.4408ZM47.0699 18.4648C47.0699 19.0209 47.0699 19.5868 47.0699 20.1332C47.0699 20.6991 47.0797 21.265 47.0699 21.8309C47.0699 22.065 47.1187 22.1724 47.3431 22.1431C47.7626 22.0943 48.1919 22.1041 48.6017 22.0358C49.4115 21.9089 50.1726 21.626 50.7677 20.943C51.5093 20.0747 51.6458 18.9917 51.5288 17.8501C51.3824 16.2403 50.6311 15.2548 49.2554 14.9426C48.6505 14.7962 48.0066 14.8255 47.3919 14.7572C47.1382 14.728 47.0504 14.8353 47.0504 15.1377C47.0797 16.2403 47.0699 17.3428 47.0699 18.4648Z" fill="white"/>
<path d="M3.11572 25.8409C3.40843 25.4214 3.6621 25.0409 3.93529 24.6994C4.20848 24.3579 4.29629 23.9871 4.29629 23.5286C4.28654 20.1039 4.29629 16.6793 4.30605 13.2547C4.30605 12.7181 4.19872 12.2692 3.87675 11.8887C3.7304 11.7131 3.61332 11.518 3.44745 11.274C3.60356 11.2643 3.70113 11.235 3.77918 11.235C4.50118 11.235 5.20367 11.2448 5.92567 11.2253C6.17935 11.2253 6.24765 11.3131 6.24765 11.596C6.23789 15.4695 6.24765 19.3527 6.24765 23.2261C6.24765 23.7042 6.24765 23.7042 6.64768 23.7042C7.9063 23.7042 9.14541 23.7042 10.404 23.7042C10.5114 23.7042 10.6089 23.7139 10.765 23.7335C10.6772 23.8798 10.6284 23.9676 10.5699 24.0457C10.1601 24.6018 9.76009 25.1482 9.34055 25.6751C9.26249 25.7824 9.09663 25.8604 8.97954 25.8702C7.12576 25.8995 5.27197 25.8995 3.40843 25.8995C3.33037 25.8799 3.26207 25.8604 3.11572 25.8409Z" fill="white"/>
<path d="M18.8728 23.4505C16.3068 23.4505 13.731 23.4505 11.0967 23.4505C11.3601 23.1383 11.5748 22.8553 11.8089 22.6114C11.965 22.4358 12.0333 22.2407 12.0333 21.9772C12.0333 19.6161 12.0333 17.255 12.0431 14.8938C12.0431 14.6011 11.9845 14.3572 11.8187 14.1328C11.6431 13.9084 11.4967 13.6449 11.3016 13.3522C11.4284 13.3425 11.5162 13.3132 11.5943 13.3132C13.4188 13.3132 15.2628 13.3132 17.0873 13.3132C17.4386 13.3132 17.4386 13.3132 17.4386 13.7328C17.4386 14.1913 17.4386 14.6499 17.4386 15.128C17.4386 15.2158 17.4288 15.3231 17.4191 15.5085C17.263 15.3524 17.1654 15.2158 17.0386 15.128C16.8922 15.0402 16.7263 14.9133 16.5702 14.9133C15.7214 14.8841 14.8726 14.9133 14.0237 14.9036C13.8188 14.9036 13.7408 14.9719 13.7408 15.2158C13.7505 15.7524 13.7505 16.3085 13.7408 16.8452C13.7408 17.0793 13.8188 17.1476 14.014 17.1379C14.5896 17.1281 15.1555 17.1379 15.7311 17.1379C15.9165 17.1379 15.9946 17.2062 15.9848 17.4306C15.9751 17.7818 15.9751 18.1526 15.9848 18.5136C15.9946 18.7673 15.9068 18.8258 15.7019 18.8258C15.1457 18.816 14.5896 18.8356 14.0335 18.816C13.8188 18.816 13.7408 18.8843 13.7505 19.1478C13.7603 19.9771 13.7505 20.7967 13.7603 21.626C13.7603 22.0358 13.7603 22.0358 14.1115 22.0358C15.2238 22.0358 16.3263 22.0455 17.4386 22.0358C17.702 22.0358 17.8972 22.1138 18.0825 22.348C18.3557 22.6992 18.6582 23.0505 18.9509 23.392C18.9119 23.4017 18.8923 23.431 18.8728 23.4505Z" fill="white"/>
<path d="M37.235 6.74691C37.3521 6.71764 37.4204 6.70789 37.4887 6.70789C38.0839 6.70789 38.6888 6.70789 39.284 6.70789C39.4791 6.70789 39.5474 6.78594 39.5474 7.01035C39.5376 8.39581 39.5474 9.77151 39.5474 11.157C39.5474 11.3033 39.5572 11.4497 39.3718 11.4887C37.84 11.7619 36.2984 11.9863 34.7666 11.557C33.4689 11.1765 32.4152 10.3959 31.8395 8.95194C30.8541 6.47372 31.9078 3.57596 34.1421 2.59053C35.5764 1.95634 37.0399 1.99536 38.5229 2.28807C38.5912 2.29782 38.679 2.43442 38.679 2.50272C38.6888 2.95153 38.6888 3.38082 38.679 3.82964C38.6693 4.17112 38.6205 4.20039 38.3376 4.08331C37.5082 3.75158 36.6594 3.5662 35.7813 3.64426C33.2445 3.85891 32.5713 6.5908 33.4884 8.49338C34.2397 10.0349 35.4496 10.5521 36.9033 10.4642C37.196 10.4545 37.4887 10.3569 37.7717 10.3081C37.918 10.2789 37.9766 10.1911 37.9766 10.0057C37.9668 9.3227 37.9863 8.64949 37.9668 7.96651C37.9668 7.82016 37.8595 7.66405 37.7814 7.54697C37.6351 7.24451 37.4399 7.0201 37.235 6.74691Z" fill="white"/>
<path d="M27.849 13.3522C27.9856 13.3425 28.0734 13.323 28.1612 13.323C29.9857 13.323 31.8297 13.323 33.6543 13.323C33.9274 13.323 34.0055 13.4108 33.9957 13.7328C33.9762 14.3084 33.9957 14.9036 33.9957 15.4792C33.9762 15.489 33.947 15.5085 33.9274 15.5182C33.8104 15.3914 33.7128 15.2255 33.586 15.128C33.4591 15.0207 33.3128 14.9133 33.1664 14.9133C32.2981 14.9036 31.4297 14.9133 30.5614 14.9036C30.3662 14.9036 30.2882 14.9719 30.2979 15.206C30.3077 15.7622 30.3077 16.3281 30.2979 16.8744C30.2979 17.0988 30.376 17.1476 30.5516 17.1476C31.1272 17.1379 31.6931 17.1476 32.2688 17.1476C32.4639 17.1476 32.542 17.2257 32.5322 17.4501C32.5225 17.8013 32.5225 18.1721 32.5322 18.5331C32.542 18.7673 32.4542 18.8356 32.259 18.8356C31.7029 18.8258 31.1272 18.8356 30.5711 18.8258C30.376 18.8258 30.2882 18.8648 30.2882 19.1283C30.2979 19.9966 30.2979 20.8552 30.2882 21.7236C30.2882 21.9772 30.3662 22.0358 30.5711 22.0358C31.7127 22.026 32.8542 22.0358 34.0055 22.0358C34.1226 22.0358 34.2299 22.065 34.4153 22.0748C34.2592 22.3773 34.1031 22.6017 34.0055 22.8553C33.8006 23.3432 33.4786 23.4993 33.0005 23.4895C31.3419 23.4505 29.693 23.4798 28.0441 23.4798C27.9368 23.4798 27.8392 23.4798 27.7319 23.4798C27.7221 23.4505 27.7124 23.431 27.6831 23.4017C27.8197 23.2456 27.9465 23.0602 28.0929 22.9139C28.4929 22.5626 28.5905 22.1138 28.5905 21.5479C28.571 19.3722 28.5807 17.2062 28.5905 15.0304C28.5905 14.6792 28.5417 14.3767 28.3173 14.0938C28.1709 13.8791 28.0343 13.6254 27.849 13.3522Z" fill="white"/>
<path d="M2.46191 10.6789C2.72534 11.0594 2.93999 11.3814 3.15464 11.6936C3.14488 11.7229 3.13512 11.7619 3.10585 11.7814C2.78388 11.7814 2.48142 11.7912 2.15945 11.7814C1.96431 11.7814 1.76917 11.7521 1.57404 11.7131C1.32036 11.6643 1.24231 11.7814 1.28134 12.0448C1.41793 13.1278 1.53501 14.2011 1.69112 15.2841C1.96431 17.0793 2.63753 18.699 3.56442 20.1527C3.76931 20.4844 3.85712 20.8064 3.83761 21.2162C3.8181 21.5187 3.83761 21.8211 3.78883 22.1529C2.42288 20.8064 1.38866 19.2063 0.734956 17.2842C-0.0846133 14.8645 -0.152911 12.3571 0.20809 9.76175C0.354442 9.83981 0.461766 9.88859 0.559334 9.94713C1.5838 10.5228 2.63753 10.7667 3.7498 10.2886C6.189 9.24464 6.68659 5.78099 5.09624 4.06379C5.04745 4.01501 5.01818 3.94671 4.94013 3.82963C5.06697 3.81987 5.15478 3.80036 5.23283 3.80036C7.18419 3.80036 9.12578 3.80036 11.0771 3.7906C11.3503 3.7906 11.4284 3.87841 11.4284 4.20039C11.4089 5.02971 11.5064 4.91263 10.7844 4.91263C9.70143 4.91263 8.59892 4.91263 7.51592 4.91263C7.17443 4.91263 7.16467 4.91263 7.19394 5.29315C7.272 6.38591 7.24273 7.47867 6.95002 8.5324C6.75489 9.27391 6.4134 9.89835 5.95483 10.4545C5.87678 10.5423 5.71091 10.5813 5.59383 10.6008C4.87183 10.6106 4.14007 10.6008 3.42783 10.6106C3.13512 10.6301 2.84242 10.6496 2.46191 10.6789Z" fill="white"/>
<path d="M47.4211 2.43441C47.3625 2.52222 47.343 2.56124 47.3137 2.59051C46.8259 2.97103 46.7576 3.50765 46.7674 4.14184C46.7869 6.11271 46.7869 8.10309 46.7674 10.0837C46.7674 10.4642 46.8357 10.7667 47.0991 11.0009C47.2552 11.1472 47.4113 11.3033 47.5577 11.4497C47.5382 11.4887 47.5186 11.5277 47.4991 11.5668C47.4113 11.5765 47.3137 11.596 47.2259 11.596C46.7088 11.596 46.2112 11.5863 45.6941 11.6058C45.4307 11.6155 45.2746 11.557 45.3331 11.2155C45.3429 11.1765 45.3234 11.1277 45.2941 11.0399C45.2355 11.0692 45.1868 11.0887 45.1477 11.1179C44.0647 11.9473 42.8939 12.0253 41.7329 11.4302C40.9718 11.0399 40.5133 10.3276 40.484 9.32269C40.445 7.47866 40.4157 5.63463 40.4157 3.7906C40.4157 3.34179 40.3279 2.99054 40.0157 2.72711C39.9474 2.67833 39.8888 2.58076 39.801 2.46368C39.9376 2.45392 40.0157 2.43441 40.1132 2.43441C40.5816 2.43441 41.0401 2.44416 41.5085 2.42465C41.7524 2.41489 41.8207 2.5027 41.8012 2.77589C41.7914 4.5809 41.8012 6.3859 41.7914 8.19091C41.7817 9.81053 42.7573 10.6496 44.2111 10.2593C45.0892 10.0252 45.4209 9.53734 45.4209 8.49336C45.4209 6.58104 45.4209 4.67847 45.4209 2.77589C45.4209 2.5027 45.4892 2.42465 45.7331 2.42465C46.1917 2.43441 46.6503 2.42465 47.0991 2.42465C47.1967 2.41489 47.2747 2.42465 47.4211 2.43441Z" fill="white"/>
<path d="M32.2592 11.5863C31.6445 11.5863 31.0396 11.596 30.4249 11.5765C30.3371 11.5765 30.22 11.3911 30.1712 11.2643C29.8395 10.3862 29.5175 9.49832 29.2248 8.6007C29.1175 8.28848 28.9614 8.16164 28.6687 8.18116C28.0052 8.21043 27.3418 8.21043 26.6783 8.18116C26.4246 8.1714 26.3173 8.28848 26.2197 8.5324C25.9075 9.43978 25.5953 10.3472 25.2928 11.2741C25.2148 11.5082 25.0977 11.6058 24.8831 11.5863C24.5416 11.557 24.1903 11.5863 23.8 11.5863C23.8391 11.4399 23.8488 11.3326 23.8781 11.2448C24.805 8.67875 25.7124 6.11272 26.649 3.54669C26.7368 3.28325 26.7173 3.10763 26.5319 2.94177C26.3856 2.81493 26.2685 2.63931 26.1026 2.44417C26.2392 2.43441 26.3271 2.40514 26.4246 2.40514C27.0686 2.40514 27.693 2.4149 28.3272 2.39539C28.5711 2.39539 28.6882 2.50271 28.7858 2.74663C29.6444 5.16631 30.5127 7.59575 31.3518 10.0154C31.5079 10.474 31.7128 10.8838 32.0348 11.196C32.1226 11.2838 32.2104 11.3911 32.2884 11.4985C32.2787 11.5375 32.2689 11.5668 32.2592 11.5863ZM27.7515 4.50285C27.732 4.50285 27.7028 4.50285 27.6735 4.50285C27.4101 5.25412 27.1369 6.00539 26.8539 6.79569C27.4296 6.79569 27.9369 6.79569 28.5028 6.79569C28.2394 6.00539 27.9857 5.25412 27.7515 4.50285Z" fill="white"/>
<path d="M17.3996 11.4399C17.5557 11.2936 17.7411 11.1765 17.8679 10.9911C17.985 10.8155 18.0923 10.5813 18.0923 10.3764C18.1021 8.25921 18.0826 6.13223 18.0923 4.01501C18.0923 3.52717 18.0143 3.14666 17.6728 2.85395C17.5557 2.76614 17.4484 2.65882 17.3313 2.56125C17.3508 2.52222 17.3703 2.4832 17.3898 2.44417C17.4777 2.43441 17.5752 2.40514 17.6533 2.40514C19.3314 2.40514 21.0096 2.40514 22.6878 2.39539C22.9317 2.39539 23 2.4832 22.9805 2.74663C22.9707 3.2735 22.9805 3.80036 22.9707 4.32723C22.9707 4.43455 22.961 4.52236 22.961 4.62969C22.9414 4.63945 22.9122 4.66872 22.8927 4.67847C22.7756 4.52236 22.6487 4.37601 22.5512 4.2199C22.3268 3.86866 22.0146 3.72231 21.6536 3.72231C20.9998 3.72231 20.3559 3.73206 19.7022 3.73206C19.5461 3.73206 19.4778 3.80036 19.4875 3.98574C19.4875 4.51261 19.4973 5.03947 19.4875 5.56634C19.4875 5.78099 19.5558 5.85904 19.7412 5.85904C20.2388 5.84928 20.7462 5.85904 21.234 5.85904C21.4291 5.85904 21.5072 5.92734 21.5072 6.1615C21.4974 6.46396 21.4974 6.75667 21.5072 7.05913C21.517 7.25426 21.4389 7.33232 21.2633 7.33232C20.7754 7.33232 20.2778 7.34207 19.79 7.33232C19.5851 7.33232 19.5071 7.40061 19.5168 7.64453C19.5266 8.38605 19.5266 9.12756 19.5168 9.86908C19.5071 10.1618 19.6046 10.2106 19.8388 10.2106C20.9218 10.2008 21.995 10.2106 23.078 10.2106C23.1854 10.2106 23.2829 10.2106 23.4683 10.2106C23.3122 10.6984 23.1756 11.1179 23.0195 11.5277C23 11.5765 22.9024 11.6155 22.8341 11.6155C21.0877 11.6155 19.351 11.6155 17.6045 11.6155C17.5557 11.6155 17.5264 11.5863 17.4777 11.5765C17.4484 11.5277 17.4191 11.4887 17.3996 11.4399Z" fill="white"/>
<path d="M54.3972 10.2886C54.1045 10.6984 53.802 11.1082 53.4995 11.4985C53.4508 11.5668 53.3434 11.5863 53.2556 11.5863C51.6555 11.596 50.0554 11.596 48.4553 11.596C48.3967 11.596 48.3382 11.5668 48.2114 11.5472C48.3675 11.3619 48.4846 11.2058 48.6212 11.0692C48.826 10.8545 48.9041 10.6106 48.9041 10.3081C48.8943 8.15189 48.8943 5.97613 48.9041 3.81988C48.9041 3.47839 48.8358 3.2052 48.5919 2.9808C48.4455 2.83444 48.3089 2.67834 48.1528 2.53198C48.1626 2.50271 48.1723 2.4832 48.1919 2.44417C48.2602 2.43442 48.3382 2.4149 48.4065 2.4149C50.0749 2.4149 51.7531 2.4149 53.4215 2.4149C53.802 2.4149 53.802 2.4149 53.7825 2.83444C53.7825 3.32228 53.7825 3.81012 53.7825 4.27845C53.7825 4.38577 53.7727 4.47358 53.7727 4.65896C53.6361 4.53212 53.5191 4.44431 53.4605 4.34674C53.1385 3.82963 52.719 3.69304 52.1824 3.73207C51.6458 3.78085 51.0994 3.74182 50.553 3.73207C50.3481 3.73207 50.2701 3.81012 50.2798 4.04428C50.2896 4.54188 50.2896 5.05899 50.2798 5.55659C50.2798 5.77123 50.3481 5.84929 50.5335 5.84929C51.0213 5.83953 51.5189 5.85904 52.0068 5.83953C52.2507 5.82977 52.3287 5.92734 52.2995 6.19078C52.2897 6.44445 52.2897 6.70788 52.2995 6.97132C52.3092 7.22499 52.2312 7.32256 52.0165 7.3128C51.5482 7.30305 51.0701 7.3128 50.6018 7.30305C50.3969 7.30305 50.3188 7.37134 50.3286 7.61526C50.3383 8.35678 50.3383 9.09829 50.3286 9.83981C50.3286 10.1032 50.4066 10.1715 50.6213 10.1715C51.7726 10.1618 52.9239 10.1715 54.085 10.1715C54.1728 10.1715 54.2801 10.1813 54.3679 10.1813C54.3777 10.2203 54.3874 10.2594 54.3972 10.2886Z" fill="white"/>
<path d="M59.0219 3.81012C57.6365 5.62488 57.4999 7.46891 58.8366 9.20562C60.2318 11.0399 61.9392 10.7569 63.6662 9.81054C64.5443 11.3911 63.5588 18.016 62.2319 19.4112C61.988 19.099 61.7441 18.7965 61.5392 18.4453C61.4806 18.338 61.5002 18.1331 61.5489 17.9867C61.8221 16.9818 62.1636 16.0158 62.3685 14.9816C62.5734 13.9279 62.6319 12.8449 62.7685 11.7034C62.4368 11.7326 62.1636 11.7131 61.8904 11.7716C61.6368 11.8107 61.5002 11.7424 61.5489 11.4302C61.588 11.1765 61.4319 11.1179 61.2855 11.0399C60.3879 10.6008 59.422 10.474 58.456 10.435C58.0658 10.4252 57.8023 10.2496 57.5974 9.87883C57.1877 9.12756 56.9047 8.34702 56.9242 7.43964C56.934 7.13718 56.8364 6.83472 56.8169 6.53226C56.7974 6.15175 56.8072 5.75172 56.8169 5.36145C56.8267 4.91264 56.8364 4.91264 56.4559 4.91264C55.8607 4.91264 55.2753 4.90288 54.6899 4.91264C54.485 4.91264 54.407 4.84434 54.407 4.60042C54.4167 3.6345 54.3192 3.81012 55.0704 3.80036C56.2608 3.79061 57.4413 3.80036 58.6317 3.80036C58.7292 3.81012 58.8366 3.81012 59.0219 3.81012Z" fill="white"/>
<path d="M11.1553 11.2838C11.2919 11.1667 11.4382 11.0301 11.5748 10.9131C11.7992 10.6984 11.9065 10.4252 11.9065 10.113C11.9065 7.59575 11.9065 5.0785 11.887 2.57101C11.887 2.39539 11.7992 2.20025 11.6919 2.0539C11.5651 1.86852 11.3797 1.71242 11.2236 1.55631C11.2333 1.52704 11.2431 1.48801 11.2626 1.4685C11.3504 1.45874 11.448 1.43923 11.5358 1.43923C12.1212 1.43923 12.6968 1.44898 13.2823 1.43923C13.5359 1.42947 13.6042 1.51728 13.6042 1.80998C13.5945 4.47358 13.6042 7.12743 13.5945 9.79103C13.5945 10.2106 13.5945 10.2106 13.9555 10.2106C15.0092 10.2106 16.0434 10.2106 17.0972 10.2106C17.185 10.2106 17.2825 10.2106 17.3801 10.2106C17.3899 10.2398 17.3996 10.2594 17.4289 10.2984C17.2825 10.4838 17.1069 10.6399 16.9801 10.835C16.6386 11.3521 16.219 11.4887 15.6531 11.4789C14.2579 11.4399 12.8627 11.4692 11.4772 11.4692C11.3992 11.4692 11.3211 11.4594 11.2528 11.4594C11.2138 11.3814 11.1845 11.3228 11.1553 11.2838Z" fill="white"/>
<path d="M27.2539 1.70265C28.5028 0.726975 34.6886 0.541595 35.8496 1.43922C35.7325 1.46849 35.6447 1.47825 35.5569 1.50752C35.1276 1.6246 34.6886 1.74168 34.2593 1.849C33.9178 1.92706 33.5665 2.02463 33.2055 2.02463C31.9176 1.9856 30.6395 1.94657 29.3614 2.21C29.215 2.23928 29.1077 2.23927 29.0492 2.02463C28.9711 1.73192 28.7369 1.71241 28.5223 1.71241C28.1223 1.70265 27.7125 1.70265 27.2539 1.70265Z" fill="white"/>
<path d="M15.7703 3.81012C16.2581 3.81012 16.7557 3.81012 17.2435 3.81012C17.4289 3.81012 17.5167 3.8589 17.5167 4.10282C17.5265 4.93214 17.5362 4.93214 16.824 4.93214C15.9947 4.93214 15.1556 4.92239 14.336 4.93214C14.1311 4.93214 14.0531 4.85409 14.0628 4.61993C14.0823 3.65401 13.9555 3.83939 14.7263 3.82963C15.0678 3.7906 15.4093 3.81012 15.7703 3.81012Z" fill="white"/>
<path d="M26.1905 3.21495C26.0344 3.32227 25.8783 3.40032 25.7612 3.48813C25.2051 3.89792 24.6294 4.31746 24.0733 4.72725C24.005 4.77603 23.9464 4.84433 23.8781 4.88335C23.605 5.01019 23.4879 4.92238 23.4976 4.59065C23.5171 3.41984 23.361 3.73205 24.2099 3.18568C24.5904 2.932 24.9709 2.70759 25.3514 2.44416C25.5466 2.31732 25.6734 2.35635 25.8002 2.56124C25.8978 2.77589 26.0344 2.98078 26.1905 3.21495Z" fill="white"/>
<path d="M43.5476 4.91264C43.2061 4.91264 42.8744 4.91264 42.5329 4.91264C42.3768 4.91264 42.3085 4.84434 42.3085 4.65896C42.3182 3.59547 42.2011 3.81988 42.9914 3.79061C43.489 3.78085 44.0061 3.79061 44.5135 3.79061C44.6989 3.79061 44.7672 3.8589 44.7672 4.08331C44.7867 4.91264 44.7867 4.91264 44.0549 4.91264C43.8793 4.91264 43.7134 4.91264 43.5476 4.91264Z" fill="white"/>
<path d="M54.524 6.80545C54.9924 6.80545 55.3143 7.22499 55.3143 7.82991C55.3143 8.44459 54.9728 8.81535 54.4167 8.83486C53.8996 8.84462 53.5581 8.41532 53.5581 7.77137C53.5581 7.17621 53.9094 6.82496 54.524 6.80545ZM54.846 7.8104C54.846 7.50794 54.6606 7.28353 54.4362 7.27378C54.1825 7.26402 53.9874 7.49818 54.0069 7.8104C54.0069 8.11286 54.1923 8.32751 54.4265 8.32751C54.6801 8.32751 54.846 8.11286 54.846 7.8104Z" fill="white"/>
<path d="M53.3533 4.92239C53.168 4.92239 52.9923 4.92239 52.8167 4.92239C52.2996 4.92239 51.7923 4.92239 51.2654 4.92239C51.08 4.92239 50.9532 4.87361 50.9727 4.61017C50.9824 4.37601 51.0898 4.29796 51.2849 4.29796C51.763 4.30772 52.2411 4.29796 52.7191 4.29796C53.0216 4.29796 53.2265 4.50285 53.3533 4.92239Z" fill="white"/>
<path d="M47.8698 4.91264C47.1869 4.90288 47.2649 5.05899 47.2649 4.21015C47.2649 3.80036 47.2649 3.80036 47.6162 3.80036C47.8113 3.80036 48.0064 3.81012 48.2113 3.80036C48.4162 3.79061 48.4845 3.87842 48.4748 4.10282C48.4748 4.13209 48.4748 4.17112 48.4748 4.19063C48.465 5.04923 48.5626 4.90288 47.8698 4.91264Z" fill="white"/>
<path d="M55.49 6.86399C55.8315 6.86399 56.1535 6.83472 56.4657 6.87375C56.5535 6.88351 56.612 7.12742 56.7291 7.32256C56.4852 7.32256 56.3388 7.3128 56.1925 7.32256C56.1339 7.32256 56.0949 7.39086 56.0364 7.42988C56.0852 7.47867 56.1242 7.54697 56.1827 7.55672C56.2608 7.58599 56.3681 7.54697 56.4462 7.56648C56.5145 7.59575 56.5925 7.6738 56.6023 7.75186C56.612 7.79089 56.5145 7.93724 56.4657 7.92748C56.0461 7.85918 55.9973 8.14213 56.0461 8.52264C56.0559 8.67875 56.0071 8.77632 55.851 8.75681C55.7339 8.74705 55.6266 8.75681 55.4998 8.75681C55.7046 8.15189 55.7046 7.54697 55.49 6.86399Z" fill="white"/>
<path d="M59.4902 21.4894C59.6951 21.8016 59.7048 22.1236 59.4902 22.387C58.9633 23.0212 58.2803 23.1773 57.5388 23.1383C57.8705 22.8749 58.212 22.6407 58.5438 22.3577C58.856 22.0943 59.1682 21.7919 59.4902 21.4894Z" fill="white"/>
<path d="M22.4632 4.92239C22.2095 4.92239 22.0144 4.92239 21.8192 4.92239C21.3509 4.92239 20.8728 4.92239 20.4045 4.92239C20.2679 4.92239 20.1216 4.92239 20.1313 4.69798C20.1313 4.48334 20.2679 4.46382 20.4143 4.46382C20.9314 4.46382 21.4387 4.46382 21.9558 4.46382C22.1998 4.46382 22.3266 4.61993 22.4632 4.92239Z" fill="white"/>
<path d="M39.8986 4.61993C39.1668 4.30771 38.8936 3.61498 39.2449 3.02957C39.8205 3.3613 40.0352 3.88817 39.8986 4.61993Z" fill="white"/>
<path d="M54.8462 7.8104C54.8462 8.11286 54.6705 8.32751 54.4266 8.32751C54.1827 8.32751 54.0071 8.11286 54.0071 7.8104C54.0071 7.49818 54.1925 7.27377 54.4364 7.27377C54.6608 7.28353 54.8462 7.50794 54.8462 7.8104Z" fill="white"/>
</svg>
