<svg width="41" height="41" viewBox="0 0 41 41" fill="none" xmlns="http://www.w3.org/2000/svg">
<path fill-rule="evenodd" clip-rule="evenodd" d="M7.69562 5.3733C11.1523 2.58331 15.5523 0.996644 20.0029 0.967977C24.6069 0.898977 29.1712 2.48797 32.7469 5.3733L28.9699 9.75862C27.2122 8.39196 25.1289 7.43096 22.9396 7.00963C18.9556 6.21763 14.6606 7.24296 11.4729 9.75862L7.69529 5.3733H7.69562ZM0.226303 21.1073C0.152636 15.6249 2.4863 10.1896 6.46596 6.45063L6.65529 6.2703L10.4326 10.6556C9.33828 11.7056 8.39495 12.9279 7.68262 14.2673C5.40263 18.4479 5.45929 23.7933 7.82762 27.9279L15.5913 20.4309L19.4806 12.046C19.5093 14.4933 19.4989 17.0569 19.4889 19.5993C19.48 21.3118 19.4772 23.0244 19.4806 24.7369L11.6489 32.2976C13.0698 33.3778 14.6828 34.1785 16.4023 34.6572C20.6169 35.8509 25.3732 34.9579 28.8396 32.2646L21.0606 24.7369L21.0666 12.0596L24.9503 20.4309L32.6476 27.8659C33.6634 26.0432 34.2626 24.018 34.4019 21.9359C34.7152 17.7586 33.0532 13.5243 30.0099 10.6556L33.7869 6.2703C36.8732 9.12129 39.0432 12.957 39.8422 17.0963C40.9292 22.5029 39.6462 28.3339 36.3716 32.7552C33.0072 37.4079 27.5652 40.4702 21.8316 40.8972C16.5406 41.3466 11.1209 39.5709 7.13596 36.0856C2.82463 32.3882 0.228636 26.7983 0.226303 21.1076V21.1073Z" fill="white"/>
</svg>
