<svg width="64" height="38" viewBox="0 0 64 38" fill="none" xmlns="http://www.w3.org/2000/svg">
<g clip-path="url(#clip0_912_64443)">
<path d="M5.06277 0.846073C4.83164 0.930119 4.43242 1.16124 4.18028 1.41338C3.71803 1.8126 3.69702 2.00171 3.69702 4.7332V7.63279L2.98263 7.50672C2.07914 7.35964 1.25969 7.54874 1.21766 7.90594C1.21766 8.05302 1.15463 8.64134 1.07058 9.22966C1.00755 9.81798 1.02856 10.4063 1.15463 10.5954C1.2807 10.7635 1.84801 10.9526 2.47835 11.0156L3.59196 11.1207V19V26.8793L2.60442 26.9844C2.03711 27.0474 1.4698 27.2365 1.34373 27.3626C1.00755 27.6988 1.00755 30.0521 1.32272 30.3672C1.4698 30.5143 2.10015 30.6614 2.70948 30.7244L3.86511 30.8085L3.82309 33.4139C3.78107 37.0699 3.59196 36.9018 8.67674 37.0909C13.9086 37.301 19.9179 37.301 23.6159 37.1329C26.2424 37.0279 26.5996 36.9648 26.4945 36.6707C26.4104 36.3765 26.4104 36.3765 26.6626 36.6707C26.8937 36.9858 27.7132 37.0279 33.4283 37.0909C39.7107 37.1539 54.5869 37.196 57.9697 37.1329C60.9744 37.0909 61.2685 36.7127 61.2685 32.8046V30.5563H62.5082C63.3697 30.5563 63.7269 30.4723 63.7269 30.2832C63.7058 30.1571 63.7689 29.5688 63.8529 29.0225C64.1261 27.4886 63.7058 26.9844 62.214 26.9844H61.0584V19V11.0156H62.3191C63.8529 11.0156 64.0841 10.7215 63.8529 9.08258C63.7689 8.47325 63.7269 7.90594 63.7479 7.82189C63.7899 7.63279 62.5922 7.42267 61.7938 7.48571L61.1635 7.54874L60.9954 5.65771C60.7012 2.44295 60.6172 1.95968 60.239 1.58147C59.6506 0.993153 54.4818 0.614944 49.0398 0.80405C44.1862 0.95113 28.3645 0.95113 14.3078 0.825062C9.45417 0.783039 5.29389 0.783039 5.06277 0.846073ZM57.2343 4.58612C57.2763 4.62814 57.3604 11.1627 57.4234 19.0841L57.5495 33.4769L43.913 33.561C36.4119 33.603 30.1295 33.645 29.9614 33.645C29.7933 33.645 24.7085 33.624 18.6782 33.624C12.6479 33.603 7.66819 33.54 7.58415 33.4769C7.28999 33.1618 7.16392 31.0396 7.28999 27.6147C7.47909 22.8241 7.47909 12.5075 7.28999 9.96506C7.22695 8.87246 7.18493 7.14952 7.22695 6.16198L7.28999 4.376L32.2306 4.43904C45.9301 4.48106 57.1923 4.54409 57.2343 4.58612Z" fill="white"/>
<path d="M46.7496 7.77986C46.4344 7.8429 45.9721 8.11604 45.699 8.41021L45.1947 8.9565L45.1527 18.8529L45.1107 28.7703L45.5939 29.4007L46.0982 30.031L49.376 30.0941L52.6538 30.1571L53.2421 29.5688C53.8304 29.0015 53.8514 28.8964 53.9565 26.354C53.9985 24.9042 53.9985 22.1727 53.9355 20.2607L53.8094 16.7938L52.3386 16.7308C50.0904 16.6257 49.9853 16.6887 49.7962 18.0965C49.6702 19.1471 49.7122 19.3362 50.0694 19.6303C50.4686 19.9455 50.5106 20.2817 50.5947 23.4754L50.6787 26.9844H49.6071H48.5565L48.5986 18.958L48.6406 10.9106L49.6912 10.8475C50.8468 10.7845 50.8888 10.8265 51.0149 12.4864C51.0779 13.1168 51.162 13.2218 51.6873 13.2849C52.0234 13.3269 52.6118 13.3059 52.969 13.2428L53.6413 13.1168L53.8094 10.9736C53.9565 8.89347 53.9355 8.85145 53.4102 8.30515C52.8849 7.77986 52.7799 7.77986 50.0904 7.73784C48.5565 7.71683 47.0437 7.73784 46.7496 7.77986Z" fill="white"/>
<path d="M11.4923 12.2133C11.4923 15.5751 11.4293 16.8358 11.1771 17.6343C10.7569 19 10.7359 20.5549 11.1561 20.891C11.4293 21.1222 11.4503 21.6685 11.3452 24.6521C11.1351 29.7579 11.3242 30.3462 13.1312 30.3462C14.9592 30.3462 14.9382 30.3672 14.8752 25.5556L14.8121 21.3743L15.6106 21.2272C16.0518 21.1642 17.0393 21.1012 17.7958 21.1012C18.8673 21.1012 19.3086 20.9961 19.6868 20.7019C20.1911 20.3027 20.1911 20.2607 20.2541 15.2179C20.2961 12.4024 20.2751 9.71293 20.1911 9.20866C20.065 8.3682 20.002 8.28415 19.2876 8.07404C18.8673 7.96898 16.9343 7.86392 15.0012 7.86392H11.4713L11.4923 12.2133ZM16.7242 13.7471C16.7242 15.4911 16.8082 16.6257 16.9763 16.8779C17.1654 17.193 17.1444 17.3401 16.8712 17.6133C16.5351 17.9494 15.5265 18.0545 15.1483 17.7813C15.0222 17.6973 14.9172 16.2265 14.8752 14.3145L14.8121 11.0156H15.7786H16.7242V13.7471Z" fill="white"/>
<path d="M22.7544 8.011C22.5023 8.24213 22.5863 10.7005 22.8595 10.9736C23.0276 11.1417 23.0276 11.2888 22.8805 11.4779C22.7334 11.667 22.6494 14.6927 22.6284 20.3868C22.5863 28.9805 22.5863 29.0015 23.0486 29.5898L23.5108 30.1781L27.1038 30.0941C29.0789 30.0311 30.8439 29.926 31.054 29.8419C31.8944 29.4637 31.9575 28.7914 31.9575 18.4327C31.9575 12.9907 31.8734 8.45224 31.7894 8.3682C31.7053 8.26314 31.0119 8.15808 30.2765 8.11606C28.9528 8.03201 28.9108 8.03201 28.7007 8.59932C28.5536 8.97753 28.4906 12.2553 28.5326 17.8654C28.5536 24.7572 28.5116 26.6062 28.2805 26.8583C28.0914 27.1105 27.9443 27.1315 27.7552 26.9844C27.6081 26.8583 27.1668 26.7953 26.7886 26.8163L26.0742 26.8793V17.6763C26.0742 8.78843 26.0532 8.45224 25.675 8.15808C25.2548 7.86392 23.0066 7.73785 22.7544 8.011Z" fill="white"/>
<path d="M34.4788 8.07404C34.4158 8.17909 34.3738 10.1122 34.3948 12.3394C34.4158 15.7222 34.3738 16.5207 34.0796 17.067C33.6594 17.8864 33.6594 18.7899 34.0586 19.7564C34.2897 20.3237 34.3738 21.6054 34.3948 25.3245L34.4158 30.1781L38.0928 30.0941L41.7698 30.0311L42.2531 29.4637C42.8834 28.7283 43.0515 27.2575 42.9465 22.8871C42.8834 19.7564 42.8414 19.4833 42.3792 18.8319C41.9169 18.1596 41.9169 18.1175 42.2741 17.7183C42.5893 17.3611 42.6523 16.7518 42.7364 12.9277L42.8414 8.5573L42.3371 8.20011C41.9169 7.92696 41.2445 7.86392 38.2189 7.86392C36.0547 7.86392 34.5629 7.94797 34.4788 8.07404ZM39.4165 13.7261C39.4165 15.5121 39.3325 16.7098 39.2064 16.7938C39.0804 16.8779 38.7232 16.8779 38.387 16.7938C37.8197 16.6677 37.7777 16.5837 37.6936 15.4701C37.6306 14.8187 37.6306 13.495 37.6936 12.5285L37.7987 10.8055H38.5971H39.4165V13.7261ZM39.3745 23.6646L39.4165 27.1945H38.8072C37.6096 27.1945 37.6306 27.2365 37.6936 23.7696C37.7356 22.0257 37.7987 20.4498 37.8407 20.3027C37.9037 20.1346 38.1979 20.0506 38.6181 20.0926L39.3115 20.1556L39.3745 23.6646Z" fill="white"/>
</g>
<defs>
<clipPath id="clip0_912_64443">
<rect width="63.0345" height="36.56" fill="white" transform="translate(0.965515 0.720001)"/>
</clipPath>
</defs>
</svg>
