<svg width="20" height="40" viewBox="0 0 20 40" fill="none" xmlns="http://www.w3.org/2000/svg">
<path d="M5.77957 0.311993C3.07582 1.05614 1.4635 2.3212 0.520905 4.40482C0.024805 5.49624 0 5.96753 0 20.28C0 34.022 0.04961 35.1134 0.471295 36.0312C1.06662 37.3707 2.60453 38.7101 4.36568 39.4047C5.68035 39.9256 6.22606 39.9752 9.922 40C13.5187 40 14.1637 39.9256 15.2799 39.4791C17.041 38.7597 18.2565 37.7675 19.0502 36.4281L19.72 35.287L19.7944 25.7867L19.8688 16.2616L19.1991 15.3934C17.5371 13.2106 12.3777 12.3672 8.83058 13.7315C8.48331 13.8555 8.4337 13.5331 8.4337 10.7301C8.4337 7.2822 8.58253 6.91013 9.94681 6.88532C11.2367 6.88532 11.4847 7.35661 11.4351 9.56426L11.3855 11.5983H15.6272H19.8936L19.7944 8.29921C19.72 4.57845 19.4223 3.73508 17.7852 2.12276C16.1977 0.58485 14.5853 0.113552 10.5421 0.0143356C8.03682 -0.0352745 6.69735 0.0391388 5.77957 0.311993ZM15.5775 22.5373L15.652 24.1992L14.4613 24.348C13.8164 24.4473 12.8986 24.6457 12.4769 24.7697L11.6584 25.0426V26.7541C11.6584 28.4161 11.6335 28.4657 11.0382 28.4657C10.7158 28.4657 10.1701 28.5897 9.82278 28.7385C9.20266 29.0362 9.20266 29.061 9.12824 32.4097C9.05383 35.7583 9.05383 35.7831 8.45851 35.8576C8.13604 35.9072 7.51592 35.8824 7.09423 35.808L6.32528 35.6591L6.37489 28.6641C6.4245 23.3558 6.52372 21.6195 6.74696 21.4707C7.29267 21.1234 9.10344 21.2474 9.4259 21.6443C9.87239 22.19 10.8646 22.0908 12.2785 21.3962C13.0722 21.0242 13.8908 20.8257 14.5109 20.8505L15.5031 20.9001L15.5775 22.5373Z" fill="white"/>
<path d="M10.6663 25.1666C10.6663 25.2906 10.7903 25.5139 10.9391 25.6627C11.1624 25.886 11.1128 25.9108 10.6911 25.8115C9.92213 25.6131 9.42603 26.1588 9.42603 27.2502C9.42603 28.2176 9.42603 28.2176 10.4182 28.2176H11.4352L11.3608 26.6797C11.3112 25.7371 11.1624 25.117 10.9887 25.0426C10.8151 24.993 10.6663 25.0426 10.6663 25.1666Z" fill="white"/>
</svg>
