<svg width="42" height="42" viewBox="0 0 42 42" fill="none" xmlns="http://www.w3.org/2000/svg">
<path d="M19.3238 0.0467949C16.9054 0.252216 14.2255 0.971203 12.0873 1.97031L11.387 2.30646H14.6644C16.5039 2.3158 18.1753 2.36248 18.4928 2.41851C21.6021 2.96942 24.0392 5.23842 24.8983 8.39448C25.0757 9.0481 25.113 9.40292 25.1037 10.5328C25.0943 11.7186 25.0663 11.9894 24.8516 12.7084C24.5248 13.7822 23.9925 14.8093 23.3576 15.631L22.8347 16.294L23.1148 16.7795L23.3949 17.2557L24.0859 16.6675C24.9823 15.9205 26.1962 15.1548 26.8685 14.9214C27.3633 14.7439 27.6528 14.7346 31.5559 14.7346H35.711L35.6924 18.9084L35.6643 23.0916L34.6185 23.1196L33.5634 23.1477V22.7368C33.5634 21.8871 33.0405 20.6452 32.4056 19.9823C31.6959 19.2259 30.8556 18.9365 29.3989 18.9365C27.8582 18.9365 26.7564 19.4127 26.3082 20.2717C26.0841 20.7106 26.1308 21.5509 26.4016 22.1392C26.8311 23.0543 27.5034 23.5772 30.0152 24.9124C34.7213 27.4149 36.4954 28.7034 37.233 30.1227C37.6532 30.9351 37.6812 31.0938 37.7559 32.4291L37.812 33.5496L38.4936 32.5225C39.7261 30.6736 40.7813 28.2926 41.3135 26.1356C42.5274 21.3082 42.0045 16.2286 39.8288 11.7933C36.5887 5.18239 30.1646 0.747105 22.872 0.0748062C21.9103 -0.00923157 20.1642 -0.0279045 19.3238 0.0467949Z" fill="white"/>
<path d="M7.37179 4.98631C3.55278 8.15171 1.03166 12.5683 0.163281 17.5825C-0.0328057 18.7591 -0.060818 22.1952 0.125931 23.5118C0.471417 26.0049 1.08769 28.1245 2.0868 30.1881C3.16994 32.4197 4.16905 33.8671 5.82178 35.5851C9.79953 39.703 15.1592 42.0093 20.7244 42C21.3219 41.9906 21.3593 41.9813 21.1912 41.8506C19.4638 40.5527 18.4367 39.1801 17.9698 37.4993C17.4936 35.8279 17.6523 34.0538 18.3993 32.5038C19.277 30.683 20.7337 29.5905 22.4798 29.4318C23.4602 29.3477 23.9644 29.4971 24.506 30.0387C25.3744 30.9164 25.3744 32.0743 24.506 32.9426C23.8337 33.6243 23.0214 33.7737 22.209 33.3628L21.7515 33.1294L21.5927 33.3442C21.3313 33.671 21.0418 34.6981 20.9858 35.4638C20.8364 37.5367 22.097 39.1614 24.3006 39.7216C25.2063 39.9457 28.1943 39.9457 28.9413 39.7216C30.3419 39.3014 31.4531 38.3957 32.0133 37.2099C32.9191 35.305 32.6296 33.3535 31.2383 31.8875C30.7434 31.3553 29.0814 30.1974 27.8208 29.4971C26.7563 28.8995 24.0858 27.0694 22.9653 26.173C20.4349 24.1468 18.6048 22.3073 17.8297 21.0281C17.4096 20.3277 17.0921 19.3473 16.896 18.0774C16.6812 16.7141 16.6812 16.7048 17.3722 16.4994C17.6803 16.406 18.1846 16.1632 18.4927 15.9672C20.7991 14.4545 21.5834 11.6532 20.3789 9.16949C19.996 8.36647 18.9969 7.33935 18.2032 6.91916C17.2415 6.41494 16.7186 6.3309 14.5243 6.3309H12.5541V15.1081C12.5541 22.4847 12.5728 23.9413 12.6848 24.2121C12.8622 24.6323 13.4225 24.9871 14.1321 25.1179L14.711 25.2299L14.683 26.257L14.655 27.2935H10.5932H6.53142L6.50341 26.2384C6.48474 25.2859 6.49407 25.1926 6.64347 25.1926C7.31577 25.1926 8.10012 24.651 8.25885 24.0907C8.32421 23.8573 8.35223 20.6265 8.33355 13.9783L8.30554 4.2113L7.37179 4.98631Z" fill="white"/>
</svg>
