<svg width="90" height="27" viewBox="0 0 90 27" fill="none" xmlns="http://www.w3.org/2000/svg">
<path d="M1.60836 0.139128C1.4891 0.265007 1.48248 0.417387 1.4626 2.09357C1.44272 3.80287 1.44935 3.9155 1.57523 4.16726C1.68123 4.36602 1.80049 4.47202 2.092 4.61778L2.47626 4.80328L5.57686 4.82316L8.67084 4.84303V4.30639V3.77637H6.58389H4.49695V3.31261V2.84884H5.42448H6.35201V2.43145V2.02069H5.44436H4.53008V1.5238V1.02691L6.60377 1.00703L8.67084 0.993781V0.49689V-1.90735e-06H5.20585C1.76074 -1.90735e-06 1.73423 -1.90735e-06 1.60836 0.139128Z" fill="white"/>
<path d="M10.1814 0.34451C10.0224 0.536641 9.75073 0.874527 9.57848 1.09978L9.26709 1.4973V2.27245V3.0476H11.3209H13.3814L13.3615 3.42524L13.3416 3.8095L11.3077 3.82937L9.26709 3.84262V4.27326V4.7039H12.1027H14.9383L15.3822 4.25339L15.8261 3.80287V2.96147V2.12007H14.0041H12.1822V1.5238V0.927529H14.0041H15.8261V0.543266C15.8261 0.331259 15.7929 0.125877 15.7466 0.0795007C15.6869 0.0198736 15.0045 -1.90735e-06 13.07 -1.90735e-06H10.4729L10.1814 0.34451Z" fill="white"/>
<path d="M16.9521 2.36521V4.73704L20.3973 4.71716L23.8424 4.70391V4.27327V3.84263H21.8217H19.801L19.8142 2.43146L19.8341 1.02692L21.9078 1.00704L23.9749 0.993789V0.496898V6.67572e-06H20.4635H16.9521V2.36521Z" fill="white"/>
<path d="M32.0049 2.39832L32.0248 4.80328L33.4294 4.82315L34.8405 4.8364L34.8737 4.68402C34.9002 4.5979 34.9068 4.50514 34.9002 4.46539C34.8935 4.43226 34.8935 4.08775 34.9002 3.69024L34.9068 2.98134H37.0269H39.1536L39.1337 1.50392L39.1138 0.0331192L35.5494 0.0132437L31.9917 -6.67572e-06L32.0049 2.39832ZM36.265 1.55692V2.15319H35.5362H34.8074L34.7875 1.6298C34.7743 1.33829 34.7809 1.06665 34.8008 1.01365C34.8273 0.940774 34.9929 0.927524 35.5494 0.940774L36.265 0.96065V1.55692Z" fill="white"/>
<path d="M39.6104 2.35195V4.7039H43.1217C45.0563 4.7039 46.653 4.7039 46.6861 4.7039C46.7126 4.7039 46.7391 4.53827 46.7523 4.33952L46.7722 3.97513H44.5793H42.3929V3.34573V2.71634L43.2741 2.70971C44.619 2.70309 44.4799 2.74946 44.4799 2.2857V1.88819L43.4861 1.85506L42.4923 1.82193V1.39129V0.960655L44.6323 0.940779L46.7656 0.927529V0.463763V-1.90735e-06H43.188H39.6104V2.35195Z" fill="white"/>
<path d="M70.5038 0.682393L69.8943 1.35817L69.8877 3.10722V4.84966L70.9345 4.8099C71.5042 4.79003 72.8359 4.76353 73.896 4.7569L75.8106 4.73703L76.3274 4.16063L76.8442 3.58424V1.79543V-4.76837e-06L73.9821 0.00662041H71.1134L70.5038 0.682393ZM74.2935 2.45133V3.942L73.5846 3.96188L72.869 3.98175V2.45133V0.920901L73.5846 0.940776L74.2935 0.960652V2.45133Z" fill="white"/>
<path d="M77.5732 2.35195V4.7039H78.9645H80.3558V4.14076C80.3558 3.82937 80.3823 3.57762 80.4088 3.57762C80.442 3.57762 80.6341 3.82937 80.8461 4.14076L81.2171 4.7039H82.933H84.649L84.9604 4.27326C85.126 4.03476 85.2916 3.84263 85.3181 3.84263C85.3446 3.84263 85.391 4.04138 85.4109 4.28651C85.4374 4.53165 85.4771 4.75028 85.5103 4.78341C85.5434 4.81653 86.2059 4.82978 86.9877 4.82316L88.4055 4.80328L88.4254 2.39833L88.4386 -9.53674e-07H86.5305H84.6225L83.8076 1.19916C83.3571 1.85506 82.9662 2.38508 82.9397 2.37183C82.9065 2.35858 82.5289 1.92131 82.1049 1.39129C81.6809 0.861277 81.2569 0.33126 81.1575 0.218631L80.9852 -9.53674e-07H79.2825H77.5732V2.35195Z" fill="white"/>
<path d="M24.9423 0.79502L24.3726 1.38466V3.11385V4.8364H25.7639H27.1552V4.60452V4.37264H27.8839H28.6127V4.60452V4.8364L30.0239 4.82315L31.4284 4.80328L31.4483 2.4977L31.4615 0.19875H28.4934H25.5187L24.9423 0.79502ZM28.6127 2.02069V3.11385H27.8508H27.0889V2.06706C27.0889 1.49067 27.1088 0.993776 27.1353 0.973901C27.1552 0.9474 27.4997 0.927524 27.8972 0.927524H28.6127V2.02069Z" fill="white"/>
<path d="M54.4512 2.51758V4.8364H55.8756H57.2934L57.3133 3.82274L57.3331 2.81571L58.2805 2.79584L59.2213 2.77596V2.31882V1.85505H58.2607H57.3V1.39129V0.927524H59.4201H61.5402V0.563137V0.19875H57.9957H54.4512V2.51758Z" fill="white"/>
<path d="M62.1362 2.51758V4.8364H63.5938H65.0513V4.10763C65.0513 3.70349 65.0778 3.37885 65.111 3.37885C65.1441 3.37885 65.3031 3.55774 65.4621 3.78299C65.6145 4.00163 65.8397 4.29976 65.9457 4.45214L66.1445 4.71715L67.7213 4.71052C68.5826 4.71052 69.3113 4.7039 69.3312 4.7039C69.3511 4.7039 69.2517 4.56477 69.1126 4.38589C68.7482 3.94862 68.0989 3.07409 68.0989 3.02109C68.0989 3.00122 68.3507 2.98134 68.6621 2.98134H69.2252V1.59005V0.19875H65.6807H62.1362V2.51758ZM66.5619 1.40454L66.542 1.88818H65.8132H65.0845L65.0646 1.40454L65.0447 0.927524H65.8132H66.5818L66.5619 1.40454Z" fill="white"/>
<path d="M22.9481 5.63144C17.0119 5.67119 17.3365 5.63806 17.2437 6.12833C17.2239 6.26083 16.992 6.8306 16.7402 7.40699C16.2168 8.57966 16.0048 9.06992 15.4682 10.3088L15.0972 11.1834V18.9415V26.6996H15.5477C18.4562 26.6798 28.9505 26.5009 29.0035 26.4677C29.0565 26.4412 29.0764 24.1754 29.0764 18.8421V11.2629H28.9107C28.7782 11.2629 28.7451 11.296 28.7451 11.4285V11.5941H27.9501C27.4267 11.5941 27.1551 11.6206 27.1551 11.667C27.1551 11.8061 26.4395 13.2372 26.1812 13.6214C26.0354 13.8335 25.777 14.1515 25.618 14.3237L25.3265 14.6417L24.9621 14.5357C24.6176 14.4364 24.2731 14.2707 24.028 14.0918C23.9418 14.0322 23.8756 14.0322 23.7961 14.0852C23.5907 14.2111 23.6172 14.3635 23.8557 14.4629C24.2068 14.6086 24.2466 14.6947 24.1671 15.1784C24.0876 15.7084 23.922 16.2318 23.7895 16.3775C23.7365 16.4438 23.6172 16.4968 23.5311 16.4968C23.4449 16.4968 23.2992 16.5763 23.2064 16.6757C23.0673 16.8281 23.0408 16.9076 23.0673 17.0997C23.0938 17.3117 23.6039 18.5705 24.4188 20.4388C24.5447 20.7303 24.6905 21.0748 24.7435 21.2007C24.8495 21.4856 24.8561 22.009 24.7567 22.3601C24.7104 22.5191 24.664 23.4003 24.6441 24.5133L24.6044 26.4015H23.6106H22.6168V24.1092V21.8168L21.9808 21.1742L21.3381 20.5316L21.2586 20.7502C21.2189 20.8694 21.1659 21.3531 21.146 21.8301C21.0996 22.8504 21.0334 22.9961 20.3708 23.4798C19.927 23.8044 19.9468 23.7713 19.0657 25.6065C18.8735 26.004 18.688 26.3551 18.6483 26.3816C18.5423 26.4545 17.2305 26.4479 17.1907 26.375C17.1709 26.3419 17.2106 26.1232 17.2835 25.8847C17.4094 25.4806 17.5021 25.1361 18.0189 23.1949C18.1779 22.5986 18.2773 22.3667 18.4827 22.0951C18.7675 21.7108 18.8205 21.4061 18.635 21.1411C18.5357 21.0019 18.529 20.8297 18.5622 19.7167C18.5887 19.021 18.635 18.2392 18.6682 17.9808C18.7079 17.7225 18.7543 17.2521 18.7808 16.9407L18.8205 16.3709L18.3899 16.1589C17.8864 15.9071 17.8798 15.8939 17.8798 14.867C17.8798 14.2972 17.9063 14.1117 18.052 13.7275C18.211 13.2902 18.3833 13.0318 18.5357 12.9788C18.5688 12.9656 18.6284 12.6078 18.6549 12.1904L18.7079 11.4285L18.8934 11.4086C18.9928 11.3954 19.1253 11.3159 19.1916 11.2165C19.7348 10.4281 20.1986 10.183 20.7154 10.395C20.881 10.4678 20.9406 10.4612 21.0797 10.3685C21.411 10.1565 21.4839 9.95108 21.4773 9.34818C21.464 8.82479 21.4773 8.77179 21.6694 8.50678C21.7754 8.3544 21.9675 8.17552 22.0868 8.10927C22.2988 7.99664 22.3253 7.99664 22.8951 8.13577C23.4781 8.28152 23.7762 8.47365 23.7762 8.71216C23.7762 8.76516 23.9816 8.93742 24.2333 9.10305C24.5514 9.30843 24.6971 9.44756 24.717 9.55356C24.7369 9.69932 24.7567 9.70594 25.4723 9.72582L26.2077 9.7457L26.1745 10.0703L26.1414 10.4016H27.4466H28.7451V10.6335C28.7451 10.8389 28.765 10.8654 28.9107 10.8654H29.0764V8.3809V5.88982L28.9107 5.73081C28.7915 5.60493 28.6921 5.57181 28.5 5.57843C28.3609 5.59168 25.8631 5.61156 22.9481 5.63144Z" fill="white"/>
<path d="M0.356158 5.69106C0.283281 5.72419 0.170652 5.80369 0.1044 5.87657C-0.00160381 5.99582 -0.00822902 6.16808 0.00502142 7.85751L0.0248971 9.70594L2.03234 9.72582L4.03315 9.73907V18.12V26.5009H6.94825H9.86335V18.12V9.73907H11.7052C13.5668 9.73907 13.9909 9.69269 14.1499 9.48731C14.2161 9.40781 14.236 8.97717 14.236 7.84426C14.236 6.16808 14.2161 5.96932 14.024 5.77056C13.8981 5.63143 13.8915 5.63143 7.19338 5.63806C3.50314 5.63806 0.429035 5.66456 0.356158 5.69106Z" fill="white"/>
<path d="M30.1364 5.76394C30.0105 5.88982 30.0039 5.98257 30.0039 8.24839V10.6003H31.1368H32.2631L32.2432 10.8786L32.2234 11.1635L31.1169 11.1834L30.0039 11.1966V18.8487V26.5009H32.8528H35.7016V25.5866C35.7148 22.9696 35.8275 19.6438 35.9004 19.7233C35.9335 19.7498 36.2581 20.9357 36.6291 22.3601C37.0001 23.7779 37.3977 25.2951 37.5103 25.7191L37.7223 26.5009H40.8891C42.8038 26.5009 44.0494 26.4744 44.0494 26.4412C44.0494 26.4081 44.0162 26.2955 43.9765 26.1895C43.9367 26.0901 43.8374 25.7787 43.7512 25.5071C43.6717 25.2355 43.4067 24.3742 43.1616 23.599C42.1612 20.399 41.8564 19.3788 41.8763 19.2993C41.8895 19.2264 42.0883 19.2065 42.7045 19.1933C43.4929 19.18 43.5127 19.18 43.7645 18.9746L44.0162 18.7692L44.0361 12.197L44.0494 5.63143H37.1591C30.355 5.63143 30.2689 5.63143 30.1364 5.76394ZM38.4179 12.3892V15.1055L37.1128 15.0922L35.801 15.0724L35.7811 12.4554C35.7745 11.0177 35.7811 9.79869 35.801 9.75894C35.8208 9.69269 36.1455 9.67282 37.126 9.67282H38.4179V12.3892Z" fill="white"/>
<path d="M45.5068 16.0662V26.5009H48.1569H50.807V21.3067C50.807 18.4115 50.8335 16.0927 50.8666 16.0728C50.9395 16.0264 51.0521 16.351 52.2381 19.975C52.7681 21.6115 53.4836 23.7912 53.8149 24.8114L54.431 26.6665L56.7962 26.6864L59.168 26.6996L59.1283 26.4545C59.1018 26.3154 58.9958 25.845 58.8964 25.4077C58.7904 24.9704 58.5916 24.1224 58.4591 23.5195C58.3266 22.9166 58.1544 22.1945 58.0881 21.9096C58.0152 21.6313 57.8695 20.9887 57.7635 20.4852C57.6509 19.9883 57.4455 19.0541 57.2931 18.4181C57.1473 17.7821 56.9552 16.9473 56.8757 16.563C56.7896 16.1788 56.624 15.45 56.5113 14.9399C56.3987 14.4297 56.2264 13.701 56.1337 13.3167L55.9614 12.621L56.1933 12.1241C56.3192 11.8525 56.8426 10.6997 57.366 9.57344C57.8827 8.44053 58.4856 7.12873 58.7043 6.65834C58.9229 6.18133 59.115 5.75731 59.1349 5.71094C59.1614 5.65131 58.5453 5.63144 56.1668 5.63806H53.159L52.2646 7.42687C51.7743 8.4074 51.3503 9.20905 51.3304 9.20905C51.2575 9.20905 51.1846 7.32087 51.2244 6.59872C51.2509 6.07533 51.2377 5.90969 51.1581 5.78382L51.0588 5.63144H48.2828H45.5068V16.0662Z" fill="white"/>
<path d="M63.0043 5.77719C62.9712 5.86332 62.6466 6.63184 62.2822 7.48649C61.9178 8.34115 61.4275 9.51381 61.1824 10.0836L60.7451 11.1237V16.2848V21.4525L60.9439 21.9758C61.0499 22.2607 61.3811 23.175 61.6726 24.0164C62.1165 25.262 62.3087 25.8119 62.6333 26.6798C62.6333 26.6864 64.5281 26.7394 66.8403 26.7924C69.1525 26.852 71.2593 26.9183 71.5177 26.9381L71.9881 26.9779L72.4055 26.0305C72.6374 25.5071 73.1078 24.4338 73.4457 23.652C73.7902 22.8703 74.2009 21.956 74.3467 21.6313L74.6249 21.0351L74.6448 13.3299L74.6581 5.63143H68.861H63.0639L63.0043 5.77719ZM68.9604 16.1324V22.592H67.7347C67.059 22.592 66.5091 22.5854 66.5024 22.5721C66.4826 22.5125 66.3368 9.75895 66.3567 9.71919C66.3699 9.69269 66.9662 9.67282 67.6751 9.67282H68.9604V16.1324Z" fill="white"/>
<path d="M75.9232 5.83019C75.7245 6.02895 75.7179 6.04882 75.751 6.44634C75.9762 8.95067 76.281 11.9585 76.3804 12.7535C76.4201 13.0451 76.5129 13.7606 76.5791 14.3436C77.2682 19.8955 78.1758 24.2417 79.1033 26.4147L79.2226 26.6996H82.7273H86.2255L86.5103 25.7854C86.9874 24.2748 87.0271 24.1224 87.3319 22.9233C88.1401 19.7697 88.6967 16.7618 88.9683 14.1448C89.0478 13.4161 89.1207 12.7138 89.1339 12.5879C89.2929 11.0244 89.3128 6.18795 89.1604 5.88982C89.0412 5.65794 88.7298 5.63144 86.3116 5.63144H83.9331V9.06992V12.515L83.4296 14.0587C83.158 14.9067 82.893 15.7216 82.8466 15.8608C82.8002 16.0065 82.734 16.1324 82.7008 16.1457C82.6611 16.1589 82.3232 15.1983 81.9456 14.0123L81.2632 11.8525L81.3029 8.73866L81.3493 5.63144H78.7456H76.1352L75.9232 5.83019Z" fill="white"/>
<path d="M24.0545 10.0372L24.0743 10.3353H24.3592C24.5646 10.3353 24.6375 10.3088 24.6375 10.236C24.6375 10.183 24.5779 10.1366 24.505 10.1366C24.399 10.1366 24.3725 10.0902 24.3725 9.93783C24.3725 9.7722 24.346 9.73907 24.2069 9.73907C24.0478 9.73907 24.0346 9.75895 24.0545 10.0372Z" fill="white"/>
<path d="M23.8423 11.4881C23.8423 11.5411 23.9019 11.6471 23.9748 11.7333C24.1073 11.8923 24.1073 11.8923 24.2067 11.7664C24.3856 11.5345 24.3326 11.3954 24.0742 11.3954C23.9218 11.3954 23.8423 11.4285 23.8423 11.4881Z" fill="white"/>
<path d="M25.3333 12.144C24.9424 12.4289 24.8298 12.6012 24.8629 12.8463C24.9159 13.1908 25.0418 13.2902 25.3465 13.2107L25.5983 13.1511L25.6182 12.568C25.6248 12.25 25.6115 11.9916 25.585 11.9916C25.5585 11.9916 25.4459 12.0645 25.3333 12.144Z" fill="white"/>
</svg>
