<svg width="49" height="40" viewBox="0 0 49 40" fill="none" xmlns="http://www.w3.org/2000/svg">
<path d="M0.154124 0.0484606C0.453861 -0.130247 0.64486 0.23095 0.806548 0.421004C11.2104 13.4364 21.6264 26.4423 32.0293 39.4577C32.243 39.6431 32.0813 40.0392 31.7929 39.9967C26.8118 40.0024 21.8297 39.9986 16.8486 39.9986C16.4496 40.0033 16.0676 39.8047 15.8227 39.4937C10.6544 33.0366 5.48887 26.5766 0.320539 20.1185C0.101173 19.8576 -0.0122917 19.52 0.00189149 19.1806C0.00189149 12.9419 0.00378217 6.70224 0 0.463554C0.00283663 0.316049 -0.00283616 0.12505 0.154124 0.0484606Z" fill="white"/>
<path d="M48.2708 0.0183385C48.4836 -0.0620326 48.7181 0.13464 48.6869 0.357788C48.6944 6.59931 48.6859 12.8408 48.6907 19.0824C48.7049 19.436 48.6273 19.8019 48.3975 20.0799C46.827 22.0448 45.2546 24.0086 43.684 25.9725C43.4221 26.3129 42.9938 26.5011 42.5654 26.4793C37.6174 26.4746 32.6684 26.4822 27.7204 26.4756C27.4283 26.521 27.2618 26.1267 27.4774 25.9366C34.3392 17.352 41.2067 8.77028 48.0723 0.187591C48.1243 0.113838 48.1905 0.0571058 48.2708 0.0183385Z" fill="white"/>
</svg>
