<svg width="41" height="41" viewBox="0 0 41 41" fill="none" xmlns="http://www.w3.org/2000/svg">
<path fill-rule="evenodd" clip-rule="evenodd" d="M15.8444 8.0091C14.9843 8.32567 14.1593 8.7305 13.3826 9.2171L8.60468 7.8571C8.49048 7.82456 8.36965 7.82312 8.2547 7.85292C8.13975 7.88273 8.03485 7.94269 7.95084 8.02662C7.86683 8.11055 7.80676 8.21539 7.77685 8.33032C7.74693 8.44524 7.74826 8.56606 7.78068 8.6803L9.13988 13.4576C8.65263 14.2333 8.24887 15.0583 7.93535 15.919L0.449219 20.5256L7.93242 25.1307C8.24875 25.9908 8.6534 26.8157 9.13988 27.5923L7.78042 32.371C7.74814 32.4852 7.74689 32.6059 7.77679 32.7207C7.8067 32.8356 7.86668 32.9404 7.95055 33.0243C8.12122 33.1958 8.37188 33.259 8.60468 33.1942L13.3826 31.8344C14.1593 32.3209 14.9843 32.7257 15.8444 33.0422L20.4498 40.5256L25.0551 33.0416C25.9146 32.7253 26.739 32.3208 27.5151 31.8344L32.2932 33.1942C32.4074 33.2266 32.5282 33.228 32.6431 33.1982C32.758 33.1683 32.8629 33.1084 32.9469 33.0245C33.0309 32.9405 33.0909 32.8357 33.1209 32.7209C33.1508 32.606 33.1496 32.4852 33.1172 32.371L31.758 27.5923C32.2446 26.8156 32.6494 25.9906 32.966 25.1304L40.4489 20.5256L32.9655 15.9203C32.649 15.0604 32.2444 14.2355 31.758 13.459L33.1172 8.6803C33.1494 8.56609 33.1505 8.44537 33.1205 8.33058C33.0905 8.21579 33.0304 8.11107 32.9465 8.02722C32.8625 7.94336 32.7578 7.88339 32.6429 7.85349C32.5281 7.82359 32.4074 7.82484 32.2932 7.8571L27.5151 9.2171C26.739 8.73072 25.9146 8.32607 25.0551 8.00963L20.4498 0.525635L15.8444 8.0091ZM13.5906 15.8022L13.1911 16.5976C13.1492 16.6811 13.1242 16.772 13.1177 16.8652C13.1112 16.9583 13.1233 17.0518 13.1532 17.1403L14.4652 21.0608C14.4999 21.1656 14.5591 21.2616 14.6378 21.3395L17.2271 23.919C17.3612 24.0523 17.5431 24.1275 17.7332 24.1275H18.8079C18.8658 24.1275 18.9244 24.1203 18.9812 24.1062L21.4946 23.4803C21.6972 23.4302 21.8679 23.2936 21.9612 23.1078L22.4679 22.0982C22.5172 21.9995 22.5431 21.8902 22.5431 21.7795V20.6102C22.5431 20.5336 22.5306 20.4576 22.5065 20.3851L21.9764 18.8022C21.9284 18.6601 21.837 18.5368 21.7151 18.4494C21.5933 18.362 21.4472 18.315 21.2972 18.315H18.8946V19.0416L19.3932 20.0355C19.4605 20.1693 19.4837 20.3208 19.4596 20.4686C19.4355 20.6164 19.3653 20.7527 19.2591 20.8582C19.1527 20.964 19.0157 21.0337 18.8676 21.0576C18.7194 21.0815 18.5675 21.0584 18.4332 20.9915L17.6492 20.6008C17.5108 20.5322 17.3985 20.4205 17.3292 20.2824L16.8391 19.3056C16.7971 19.222 16.7721 19.1308 16.7655 19.0375C16.7589 18.9441 16.7707 18.8504 16.8004 18.7616L17.3426 17.1416C17.3723 17.0527 17.4193 16.9706 17.4808 16.8999C17.5424 16.8292 17.6173 16.7713 17.7012 16.7296L20.3084 15.431C20.3391 15.4155 20.3706 15.403 20.4025 15.3923L21.9524 14.8776C22.1157 14.8231 22.2932 14.8292 22.4523 14.8948C22.6115 14.9605 22.7417 15.0812 22.8191 15.235L23.1644 15.923C23.2338 16.0608 23.3458 16.1731 23.4844 16.2416L24.4044 16.6998C24.5053 16.7499 24.5929 16.8232 24.66 16.9137C24.7271 17.0042 24.7718 17.1092 24.7906 17.2203L25.3999 20.8608C25.4186 20.9728 25.4102 21.0877 25.3754 21.1958C25.3406 21.3039 25.2804 21.4021 25.1999 21.4822L24.7666 21.9136C24.7426 21.9376 24.7203 21.9633 24.6999 21.9904L22.6618 24.6971C22.5829 24.8017 22.4768 24.8826 22.3551 24.931L18.9212 26.299C18.903 26.3065 18.8849 26.3145 18.8671 26.323L17.5052 27.0016C17.4584 27.025 17.4093 27.0431 17.3586 27.0558L16.3938 27.2958C15.7492 27.4563 15.6524 28.3291 16.2471 28.6251L18.5738 29.7838C18.6731 29.8334 18.7827 29.8592 18.8938 29.8592C19.0048 29.8592 19.1144 29.8334 19.2138 29.7838L20.2017 29.2918C20.3012 29.2422 20.4107 29.2164 20.5218 29.2163H21.6959C21.7732 29.2163 21.8498 29.2038 21.9226 29.1798L23.8404 28.543C23.9458 28.5083 24.0417 28.4491 24.1204 28.371L25.4097 27.0864C25.4431 27.0531 25.4799 27.023 25.5191 26.9971L27.4298 25.7283C27.5711 25.6342 27.6745 25.4936 27.7212 25.331L29.0471 20.7078C29.0864 20.5696 29.0832 20.4227 29.0378 20.2864L27.6852 16.2451C27.6605 16.1726 27.6245 16.1043 27.5786 16.043L25.5938 13.407C25.5063 13.291 25.3857 13.2043 25.2479 13.1584L21.5026 11.9144C21.3764 11.8726 21.2412 11.8665 21.1118 11.8969C20.9825 11.9272 20.8641 11.9928 20.7698 12.0864L20.7178 12.1382C20.6113 12.2439 20.4744 12.3137 20.3262 12.3376C20.1781 12.3615 20.0262 12.3384 19.8919 12.2715L19.2146 11.9344C19.1152 11.8848 19.0056 11.8589 18.8946 11.8589C18.7835 11.8589 18.6739 11.8848 18.5746 11.9344L16.2418 13.0963C16.1578 13.138 16.0829 13.1959 16.0214 13.2666C15.9598 13.3373 15.9128 13.4194 15.8831 13.5083L15.4106 14.9208C15.3625 15.063 15.2711 15.1864 15.1492 15.2739C15.0273 15.3613 14.8811 15.4083 14.7311 15.4083H14.2306C14.0979 15.4083 13.9678 15.4451 13.8548 15.5146C13.7418 15.5841 13.6503 15.6837 13.5906 15.8022ZM20.4492 32.5256C18.1678 32.5289 15.9332 31.8791 14.0092 30.6531C13.9254 30.5622 13.8181 30.4961 13.6991 30.4624C13.5802 30.4286 13.4542 30.4283 13.3351 30.4616L9.39109 31.5843L10.5132 27.6403C10.5786 27.411 10.5092 27.1718 10.3466 27.0035C9.10469 25.0715 8.44922 22.835 8.44922 20.5256C8.44922 18.2451 9.11242 15.9651 10.3199 14.0862C10.4116 14.0027 10.4782 13.8952 10.5122 13.776C10.5463 13.6567 10.5463 13.5303 10.5124 13.411L9.39055 9.46644L13.3346 10.5891C13.5644 10.6544 13.8039 10.5856 13.9714 10.4222C15.9034 9.18137 18.1399 8.52563 20.4492 8.52563C22.7434 8.52563 24.9666 9.1731 26.8898 10.3984C26.9735 10.4895 27.0808 10.5555 27.1999 10.5891C27.3189 10.6227 27.4449 10.6226 27.5639 10.5888L31.5079 9.46617L30.3857 13.411C30.3199 13.6408 30.3898 13.8803 30.5524 14.0478C31.7938 15.9798 32.4492 18.2163 32.4492 20.5256C32.4492 22.8198 31.802 25.043 30.5767 26.9662C30.4855 27.0498 30.4194 27.1571 30.3857 27.2762C30.3519 27.3952 30.352 27.5213 30.3857 27.6403L31.5079 31.5843L27.5639 30.4616C27.3332 30.3963 27.0938 30.467 26.9265 30.6288C24.9951 31.8702 22.7578 32.5256 20.4492 32.5256Z" fill="white"/>
</svg>
