<svg width="41" height="41" viewBox="0 0 41 41" fill="none" xmlns="http://www.w3.org/2000/svg">
<path d="M19.7909 24.5566H14.2166L14.0039 23.6001C13.7604 22.5048 13.5171 21.4111 13.2719 20.3176C13.1351 19.6976 12.9964 19.0788 12.8579 18.4583C12.6079 17.3328 12.3559 16.2071 12.1091 15.0798C12.0449 14.7858 11.9011 14.5406 11.6899 14.3311C11.3231 13.9643 10.9581 13.5976 10.5726 13.2156H16.3634C16.3457 13.2598 16.3259 13.3032 16.3041 13.3456C16.2516 13.4506 16.1991 13.5553 16.1469 13.6618C16.0539 13.8461 15.9611 14.0303 15.8714 14.2161C15.7261 14.5186 15.6906 14.8398 15.7734 15.1643C16.1284 16.5908 16.4866 18.0173 16.8449 19.4438L17.3824 21.5836C17.3859 21.5986 17.3909 21.6141 17.3959 21.6293C17.4009 21.6443 17.4044 21.6596 17.4094 21.6748C17.4231 21.6716 17.4331 21.6716 17.4434 21.6716C17.9234 20.4358 18.4049 19.2003 18.8866 17.9616C19.5001 16.3828 20.1171 14.7976 20.7391 13.2003C21.8461 16.0483 22.9396 18.8608 24.0501 21.7121C24.0601 21.6798 24.0689 21.6546 24.0771 21.6308C24.0891 21.5938 24.0991 21.5666 24.1059 21.5396C24.5489 19.7751 24.9899 18.0088 25.4309 16.2443L25.6946 15.1896C25.7791 14.8466 25.7539 14.5186 25.5984 14.1991C25.4784 13.9526 25.3566 13.7073 25.2316 13.4573C25.1911 13.3761 25.1504 13.2948 25.1099 13.2123H30.8936C30.8769 13.2291 30.8631 13.2461 30.8481 13.2628C30.8294 13.2831 30.8126 13.3033 30.7956 13.3221C30.7214 13.3981 30.6469 13.4741 30.5726 13.5521C30.3884 13.7446 30.2024 13.9356 30.0014 14.1113C29.5871 14.4696 29.3929 14.9176 29.2796 15.4431C28.9246 17.0878 28.5579 18.7306 28.1894 20.3718L27.8141 22.0536C27.7229 22.4661 27.6299 22.8783 27.5386 23.2923C27.4441 23.7148 27.3511 24.1358 27.2581 24.5583H21.6821C21.3781 23.7116 21.0754 22.8663 20.7711 22.0196C20.7679 22.0096 20.7611 21.9976 20.7526 21.9808C20.7476 21.9723 20.7426 21.9606 20.7341 21.9486C20.6916 22.0653 20.6511 22.1768 20.6106 22.2866C20.5566 22.4321 20.5059 22.5741 20.4551 22.7161C20.2354 23.3296 20.0141 23.9448 19.7944 24.5583L19.7909 24.5566ZM3.78164 24.5566H6.79864C6.55283 23.7188 6.38257 22.8607 6.28989 21.9926C6.17839 20.9328 6.17839 19.8748 6.30339 18.8168C6.58739 16.3881 7.42914 14.1653 8.83839 12.1658C9.03964 11.8786 9.13264 11.5981 9.12264 11.2483C9.10564 10.6821 9.10914 10.1158 9.11264 9.54108C9.11264 9.30958 9.11589 9.07808 9.11589 8.84308H9.92539C10.5761 8.84308 11.2251 8.84308 11.8759 8.83958C11.9689 8.83958 12.0769 8.80583 12.1514 8.75183C13.3564 7.88983 14.6529 7.19358 16.0589 6.71508C17.0008 6.39112 17.974 6.16681 18.9626 6.04583C20.0106 5.91583 21.0601 5.89708 22.1081 5.99833C24.5876 6.23683 26.8659 7.05483 28.9129 8.47458C29.2949 8.74008 29.6616 8.87358 30.1264 8.85158C30.6384 8.82783 31.1556 8.83283 31.6779 8.83808C31.9079 8.83958 32.1376 8.84308 32.3691 8.84308V9.65258C32.3691 10.3033 32.3691 10.9526 32.3726 11.6031C32.3726 11.6961 32.4064 11.8043 32.4604 11.8786C33.2921 13.0413 33.9681 14.2836 34.4464 15.6341C35.0566 17.3548 35.3354 19.1278 35.2696 20.9516C35.2256 22.2006 35.0329 23.4006 34.6949 24.5516H37.6916C37.9084 23.6494 38.0536 22.7316 38.1259 21.8066C38.2537 20.1829 38.1519 18.5493 37.8234 16.9541C37.3821 14.8111 36.5626 12.8266 35.3709 10.9946C35.3034 10.8956 35.2681 10.7782 35.2696 10.6583C35.2729 9.14233 35.2729 7.62433 35.2729 6.10833V5.92758H33.9344C32.7866 5.92758 31.6391 5.92758 30.4896 5.92408C30.4069 5.92408 30.3191 5.89208 30.2481 5.85308C30.0606 5.74495 29.8741 5.63511 29.6886 5.52358C29.3336 5.31233 28.9786 5.10108 28.6136 4.91358C26.4231 3.79458 24.0959 3.17608 21.6349 3.04908C20.1978 2.9737 18.7568 3.07699 17.3451 3.35658C15.1414 3.79458 13.1029 4.63283 11.2201 5.85833C11.1477 5.90394 11.064 5.92852 10.9784 5.92933C9.44214 5.93258 7.90739 5.93258 6.37089 5.93258H6.19839V7.27283C6.19839 8.41708 6.19839 9.56308 6.19514 10.7073C6.19514 10.7918 6.16314 10.8881 6.12089 10.9623C6.00914 11.1586 5.89439 11.3513 5.77939 11.5441C5.58339 11.8736 5.38564 12.2031 5.20989 12.5446C4.07064 14.7501 3.44539 17.0978 3.31689 19.5773C3.24185 21.0146 3.34632 22.4556 3.62789 23.8671C3.67339 24.0986 3.72764 24.3283 3.78164 24.5566ZM8.59364 26.3938L7.68614 29.2298L6.82739 26.3938H5.29939L4.39189 29.1943L3.53314 26.3938H1.82439L3.40139 31.3191H5.18114L6.01939 28.6873L6.81389 31.3191H8.59364L10.1704 26.3938H8.59364ZM13.4849 31.3191H15.2579L14.2234 29.7996C14.5244 29.6441 14.7541 29.4361 14.9131 29.1723C15.0719 28.9106 15.1531 28.6028 15.1531 28.2513C15.1531 27.8761 15.0619 27.5481 14.8794 27.2658C14.6969 26.9836 14.4364 26.7691 14.0984 26.6186C13.7604 26.4681 13.3649 26.3938 12.9084 26.3938H10.5371V31.3191H12.1986V30.0801H12.6484L13.4866 31.3191H13.4849ZM13.4781 28.2513C13.4781 28.4338 13.4224 28.5758 13.3091 28.6773C13.1959 28.7786 13.0266 28.8276 12.8021 28.8276H12.1971V27.6733H12.8021C13.0269 27.6733 13.1959 27.7241 13.3091 27.8253C13.4224 27.9268 13.4781 28.0688 13.4781 28.2513ZM19.4664 31.3191H21.1836L19.0304 26.3938H17.3979L15.2444 31.3191H16.9329L17.2641 30.4603H19.1366L19.4681 31.3191H19.4664ZM17.7204 29.2638L18.1989 28.0248L18.6771 29.2638H17.7204ZM22.2739 31.3191H23.9351V27.6801H25.3786V26.3921H20.8321V27.6801H22.2754V31.3191H22.2739ZM29.0006 26.3938V28.1398H27.4661V26.3938H25.8046V31.3191H27.4661V29.5038H29.0006V31.3191H30.6621V26.3938H29.0006ZM1.77539 37.9123H5.65939V36.6243H3.43689V32.9856H1.77539V37.9123ZM6.11739 37.9123H7.77889V32.9871H6.11739V37.9123ZM11.1271 38.0256C11.6054 38.0256 12.0331 37.9411 12.4084 37.7721C12.7747 37.61 13.0944 37.3584 13.3379 37.0403L12.2899 36.1038C11.9856 36.4893 11.6256 36.6801 11.2134 36.6801C10.8669 36.6801 10.5861 36.5686 10.3766 36.3456C10.1671 36.1223 10.0606 35.8233 10.0606 35.4481C10.0606 35.0728 10.1656 34.7736 10.3766 34.5506C10.5879 34.3276 10.8666 34.2158 11.2134 34.2158C11.6259 34.2158 11.9859 34.4086 12.2899 34.7923L13.3379 33.8558C13.0944 33.5366 12.7834 33.2931 12.4084 33.1241C12.0331 32.9551 11.6054 32.8706 11.1271 32.8706C10.6066 32.8706 10.1366 32.9803 9.71914 33.1983C9.30164 33.4166 8.97389 33.7223 8.73714 34.1128C8.50064 34.5048 8.38214 34.9496 8.38214 35.4463C8.38214 35.9433 8.50064 36.3878 8.73714 36.7798C8.97389 37.1721 9.30164 37.4763 9.71914 37.6943C10.1366 37.9123 10.6066 38.0221 11.1271 38.0221V38.0256ZM17.0106 32.9871V34.7331H15.4759V32.9871H13.8144V37.9123H15.4759V36.0971H17.0106V37.9123H18.6721V32.9871H17.0104H17.0106ZM24.8209 37.9123H26.7426L24.6739 35.1541L26.6446 32.9871H24.8361L23.2169 34.7753V32.9871H21.5844V37.9123H23.2169V36.6953L23.5904 36.2796L24.8226 37.9123H24.8209ZM26.9674 37.9123H28.6289V32.9871H26.9674V37.9123ZM32.6666 32.9871V35.2251L30.7956 32.9871H29.4299V37.9123H31.0491V35.6746L32.9201 37.9123H34.2859V32.9871H32.6666ZM38.3456 36.5618C38.1539 36.6414 37.9483 36.6822 37.7406 36.6818C37.3839 36.6818 37.0984 36.5686 36.8854 36.3438C36.6724 36.1191 36.5659 35.8216 36.5659 35.4498C36.5659 35.0778 36.6741 34.7703 36.8904 34.5488C37.1066 34.3291 37.3974 34.2176 37.7626 34.2176C38.1901 34.2176 38.5569 34.3986 38.8679 34.7601L39.9311 33.8238C39.6766 33.5133 39.3491 33.2705 38.9779 33.1173C38.5959 32.9551 38.1631 32.8738 37.6796 32.8738C37.1456 32.8738 36.6656 32.9838 36.2414 33.2018C35.8171 33.4198 35.4859 33.7258 35.2491 34.1163C35.0126 34.5066 34.8944 34.9528 34.8944 35.4498C34.8944 35.9466 35.0126 36.3911 35.2491 36.7833C35.4859 37.1753 35.8139 37.4796 36.2311 37.6976C36.6486 37.9158 37.1204 38.0256 37.6459 38.0256C38.0161 38.0256 38.3946 37.9716 38.7784 37.8633C39.1636 37.7551 39.5001 37.6013 39.7924 37.3986V35.3163H38.3491V36.5618H38.3456ZM33.8446 28.6131C34.0729 28.6131 34.2774 28.5656 34.4599 28.4711C34.6365 28.3816 34.7846 28.2446 34.8876 28.0756C34.9906 27.9066 35.0414 27.7173 35.0414 27.5043C35.0414 27.2913 34.9906 27.1021 34.8876 26.9331C34.7847 26.764 34.6365 26.627 34.4599 26.5376C34.2774 26.4428 34.0729 26.3956 33.8446 26.3956C33.6166 26.3956 33.4121 26.4428 33.2294 26.5376C33.0528 26.6269 32.9047 26.7639 32.8019 26.9331C32.6989 27.1021 32.6481 27.2913 32.6481 27.5043C32.6481 27.7173 32.6989 27.9066 32.8019 28.0756C32.9048 28.2447 33.0528 28.3816 33.2294 28.4711C33.4121 28.5656 33.6166 28.6131 33.8446 28.6131ZM33.8446 28.0351C33.76 28.0364 33.6767 28.0135 33.6046 27.9691C33.5322 27.9241 33.4733 27.8605 33.4341 27.7848C33.3916 27.7053 33.3699 27.6123 33.3699 27.5043C33.3699 27.3961 33.3916 27.3031 33.4341 27.2236C33.4764 27.1443 33.5336 27.0818 33.6046 27.0396C33.6756 26.9956 33.7569 26.9736 33.8446 26.9736C33.9326 26.9736 34.0136 26.9956 34.0846 27.0396C34.1556 27.0833 34.2131 27.1443 34.2554 27.2236C34.2976 27.3031 34.3196 27.3961 34.3196 27.5043C34.3196 27.6123 34.2976 27.7053 34.2554 27.7848C34.2166 27.8608 34.1575 27.9246 34.0846 27.9691C34.0125 28.0133 33.9293 28.0361 33.8446 28.0351ZM37.0256 26.9836V26.4446H35.3016V28.5656H36.0166V27.8878H36.9006V27.3488H36.0166V26.9853H37.0256V26.9836ZM33.1939 31.4036H33.9089V29.8366H34.5291V29.2823H32.5721V29.8366H33.1924V31.4036H33.1939ZM36.0894 29.2823V30.0328H35.4284V29.2823H34.7134V31.4036H35.4284V30.6226H36.0894V31.4036H36.8041V29.2823H36.0894ZM37.8521 30.8643V30.5853H38.7496V30.0698H37.8521V29.8216H38.8729V29.2823H37.1491V31.4036H38.9119V30.8643H37.8521Z" fill="white"/>
</svg>
