<svg width="14" height="11" viewBox="0 0 14 11" fill="none" xmlns="http://www.w3.org/2000/svg">
<path d="M11.9237 1.23309C13.4305 3.46423 14.1747 5.98089 13.8965 8.87815C13.8953 8.89041 13.889 8.90166 13.879 8.90905C12.7379 9.75287 11.6323 10.265 10.5423 10.6046C10.5338 10.6072 10.5247 10.607 10.5163 10.6042C10.5079 10.6013 10.5006 10.5959 10.4954 10.5886C10.2436 10.2357 10.0148 9.86372 9.8143 9.47305C9.80279 9.45004 9.8133 9.42233 9.83698 9.41326C10.2004 9.27537 10.5459 9.1101 10.8783 8.91443C10.9045 8.89898 10.9062 8.86119 10.882 8.84305C10.8115 8.79031 10.7416 8.73488 10.6747 8.67946C10.6622 8.66921 10.6453 8.6672 10.6312 8.67408C8.47326 9.67762 6.10937 9.67762 3.92594 8.67408C3.91176 8.6677 3.89492 8.66988 3.88275 8.67996C3.81603 8.73539 3.74599 8.79031 3.67611 8.84305C3.65193 8.86119 3.65393 8.89898 3.68028 8.91443C4.01266 9.1064 4.35822 9.27537 4.72113 9.41393C4.74464 9.423 4.75582 9.45004 4.74414 9.47305C4.54801 9.86422 4.3192 10.2362 4.0627 10.5891C4.05152 10.6034 4.03318 10.61 4.01583 10.6046C2.93095 10.265 1.8254 9.75287 0.684314 8.90905C0.674808 8.90166 0.66797 8.88991 0.66697 8.87765C0.434484 6.37156 0.908295 3.83407 2.63793 1.23258C2.6421 1.2257 2.64844 1.22032 2.65577 1.21713C3.50683 0.823776 4.4186 0.534386 5.37155 0.369116C5.3889 0.366429 5.40624 0.374491 5.41525 0.389943C5.53299 0.599889 5.66758 0.869124 5.75864 1.08915C6.76313 0.934627 7.7833 0.934627 8.80881 1.08915C8.89987 0.873827 9.02979 0.599889 9.14703 0.389943C9.15121 0.382277 9.15768 0.376136 9.16553 0.372396C9.17337 0.368656 9.18219 0.367508 9.19073 0.369116C10.1442 0.53489 11.0559 0.824279 11.9063 1.21713C11.9138 1.22032 11.92 1.2257 11.9237 1.23309ZM6.26931 5.99802C6.27982 5.25717 5.74347 4.64412 5.07019 4.64412C4.40242 4.64412 3.87124 5.25179 3.87124 5.99802C3.87124 6.74409 4.41293 7.35176 5.07019 7.35176C5.73813 7.35176 6.26931 6.74409 6.26931 5.99802ZM10.7025 5.99802C10.7131 5.25717 10.1767 4.64412 9.5036 4.64412C8.83566 4.64412 8.30448 5.25179 8.30448 5.99802C8.30448 6.74409 8.84617 7.35176 9.5036 7.35176C10.1767 7.35176 10.7025 6.74409 10.7025 5.99802Z" fill="#5865F2"/>
</svg>
