<svg width="168" height="80" viewBox="0 0 168 80" fill="none" xmlns="http://www.w3.org/2000/svg">
<g opacity="0.15">
<path d="M21.1699 2.78868L25 0.57735L28.8301 2.78868V7.21133L25 9.42265L21.1699 7.21133V2.78868Z" stroke="#F09A38"/>
<path d="M26.1699 11.7887L30 9.57735L33.8301 11.7887V16.2113L30 18.4226L26.1699 16.2113V11.7887Z" stroke="#F09A38"/>
<path d="M16.1699 11.7887L20 9.57735L23.8301 11.7887V16.2113L20 18.4226L16.1699 16.2113V11.7887Z" stroke="#F09A38"/>
<path d="M36.1699 12.7887L40 10.5774L43.8301 12.7887V17.2113L40 19.4226L36.1699 17.2113V12.7887Z" stroke="#F09A38"/>
<path d="M41.1699 21.7887L45 19.5774L48.8301 21.7887V26.2113L45 28.4226L41.1699 26.2113V21.7887Z" stroke="#F09A38"/>
<path opacity="0.25" d="M31.1699 21.7887L35 19.5774L38.8301 21.7887V26.2113L35 28.4226L31.1699 26.2113V21.7887Z" stroke="#F09A38"/>
<path d="M51.1699 3.78868L55 1.57735L58.8301 3.78868V8.21133L55 10.4226L51.1699 8.21133V3.78868Z" stroke="#F09A38"/>
<path d="M56.1699 12.7887L60 10.5774L63.8301 12.7887V17.2113L60 19.4226L56.1699 17.2113V12.7887Z" stroke="#F09A38"/>
<path opacity="0.25" d="M46.1699 12.7887L50 10.5774L53.8301 12.7887V17.2113L50 19.4226L46.1699 17.2113V12.7887Z" stroke="#F09A38"/>
<path opacity="0.25" d="M51.1699 21.7887L55 19.5774L58.8301 21.7887V26.2113L55 28.4226L51.1699 26.2113V21.7887Z" stroke="#F09A38"/>
<path opacity="0.25" d="M56.1699 30.7887L60 28.5774L63.8301 30.7887V35.2113L60 37.4226L56.1699 35.2113V30.7887Z" stroke="#F09A38"/>
<path d="M46.1699 30.7887L50 28.5774L53.8301 30.7887V35.2113L50 37.4226L46.1699 35.2113V30.7887Z" stroke="#F09A38"/>
<path opacity="0.25" d="M66.1699 12.7887L70 10.5774L73.8301 12.7887V17.2113L70 19.4226L66.1699 17.2113V12.7887Z" stroke="#F09A38"/>
<path opacity="0.25" d="M71.1699 21.7887L75 19.5774L78.8301 21.7887V26.2113L75 28.4226L71.1699 26.2113V21.7887Z" stroke="#F09A38"/>
<path d="M61.1699 21.7887L65 19.5774L68.8301 21.7887V26.2113L65 28.4226L61.1699 26.2113V21.7887Z" stroke="#F09A38"/>
<path opacity="0.25" d="M36.1699 30.7887L40 28.5774L43.8301 30.7887V35.2113L40 37.4226L36.1699 35.2113V30.7887Z" stroke="#F09A38"/>
<path d="M41.1699 39.7887L45 37.5774L48.8301 39.7887V44.2113L45 46.4226L41.1699 44.2113V39.7887Z" stroke="#F09A38"/>
<path opacity="0.25" d="M31.1699 39.7887L35 37.5774L38.8301 39.7887V44.2113L35 46.4226L31.1699 44.2113V39.7887Z" stroke="#F09A38"/>
<path d="M21.1699 21.7887L25 19.5774L28.8301 21.7887V26.2113L25 28.4226L21.1699 26.2113V21.7887Z" stroke="#F09A38"/>
<path d="M26.1699 30.7887L30 28.5774L33.8301 30.7887V35.2113L30 37.4226L26.1699 35.2113V30.7887Z" stroke="#F09A38"/>
<path opacity="0.25" d="M16.1699 30.7887L20 28.5774L23.8301 30.7887V35.2113L20 37.4226L16.1699 35.2113V30.7887Z" stroke="#F09A38"/>
<g opacity="0.15">
<path opacity="0.25" d="M6.16987 12.7887L10 10.5774L13.8301 12.7887V17.2113L10 19.4226L6.16987 17.2113V12.7887Z" stroke="#F09A38"/>
<path opacity="0.25" d="M11.1699 21.7887L15 19.5774L18.8301 21.7887V26.2113L15 28.4226L11.1699 26.2113V21.7887Z" stroke="#F09A38"/>
<path d="M1.16987 21.7887L5 19.5774L8.83013 21.7887V26.2113L5 28.4226L1.16987 26.2113V21.7887Z" stroke="#F09A38"/>
</g>
</g>
<g opacity="0.15">
<path d="M109.17 2.78868L113 0.57735L116.83 2.78868V7.21133L113 9.42265L109.17 7.21133V2.78868Z" stroke="#F09A38"/>
<path d="M114.17 11.7887L118 9.57735L121.83 11.7887V16.2113L118 18.4226L114.17 16.2113V11.7887Z" stroke="#F09A38"/>
<path d="M104.17 11.7887L108 9.57735L111.83 11.7887V16.2113L108 18.4226L104.17 16.2113V11.7887Z" stroke="#F09A38"/>
<path d="M124.17 12.7887L128 10.5774L131.83 12.7887V17.2113L128 19.4226L124.17 17.2113V12.7887Z" stroke="#F09A38"/>
<path d="M129.17 21.7887L133 19.5774L136.83 21.7887V26.2113L133 28.4226L129.17 26.2113V21.7887Z" stroke="#F09A38"/>
<path opacity="0.25" d="M119.17 21.7887L123 19.5774L126.83 21.7887V26.2113L123 28.4226L119.17 26.2113V21.7887Z" stroke="#F09A38"/>
<path d="M139.17 3.78868L143 1.57735L146.83 3.78868V8.21133L143 10.4226L139.17 8.21133V3.78868Z" stroke="#F09A38"/>
<path d="M144.17 12.7887L148 10.5774L151.83 12.7887V17.2113L148 19.4226L144.17 17.2113V12.7887Z" stroke="#F09A38"/>
<path opacity="0.25" d="M134.17 12.7887L138 10.5774L141.83 12.7887V17.2113L138 19.4226L134.17 17.2113V12.7887Z" stroke="#F09A38"/>
<path opacity="0.25" d="M139.17 21.7887L143 19.5774L146.83 21.7887V26.2113L143 28.4226L139.17 26.2113V21.7887Z" stroke="#F09A38"/>
<path opacity="0.25" d="M144.17 30.7887L148 28.5774L151.83 30.7887V35.2113L148 37.4226L144.17 35.2113V30.7887Z" stroke="#F09A38"/>
<path d="M134.17 30.7887L138 28.5774L141.83 30.7887V35.2113L138 37.4226L134.17 35.2113V30.7887Z" stroke="#F09A38"/>
<path opacity="0.25" d="M154.17 12.7887L158 10.5774L161.83 12.7887V17.2113L158 19.4226L154.17 17.2113V12.7887Z" stroke="#F09A38"/>
<path opacity="0.25" d="M159.17 21.7887L163 19.5774L166.83 21.7887V26.2113L163 28.4226L159.17 26.2113V21.7887Z" stroke="#F09A38"/>
<path d="M149.17 21.7887L153 19.5774L156.83 21.7887V26.2113L153 28.4226L149.17 26.2113V21.7887Z" stroke="#F09A38"/>
<path opacity="0.25" d="M124.17 30.7887L128 28.5774L131.83 30.7887V35.2113L128 37.4226L124.17 35.2113V30.7887Z" stroke="#F09A38"/>
<path d="M129.17 39.7887L133 37.5774L136.83 39.7887V44.2113L133 46.4226L129.17 44.2113V39.7887Z" stroke="#F09A38"/>
<path opacity="0.25" d="M119.17 39.7887L123 37.5774L126.83 39.7887V44.2113L123 46.4226L119.17 44.2113V39.7887Z" stroke="#F09A38"/>
<path d="M109.17 21.7887L113 19.5774L116.83 21.7887V26.2113L113 28.4226L109.17 26.2113V21.7887Z" stroke="#F09A38"/>
<path d="M114.17 30.7887L118 28.5774L121.83 30.7887V35.2113L118 37.4226L114.17 35.2113V30.7887Z" stroke="#F09A38"/>
<path opacity="0.25" d="M104.17 30.7887L108 28.5774L111.83 30.7887V35.2113L108 37.4226L104.17 35.2113V30.7887Z" stroke="#F09A38"/>
<g opacity="0.15">
<path opacity="0.25" d="M94.1699 12.7887L98 10.5774L101.83 12.7887V17.2113L98 19.4226L94.1699 17.2113V12.7887Z" stroke="#F09A38"/>
<path opacity="0.25" d="M99.1699 21.7887L103 19.5774L106.83 21.7887V26.2113L103 28.4226L99.1699 26.2113V21.7887Z" stroke="#F09A38"/>
<path d="M89.1699 21.7887L93 19.5774L96.8301 21.7887V26.2113L93 28.4226L89.1699 26.2113V21.7887Z" stroke="#F09A38"/>
</g>
</g>
<g opacity="0.15">
<path d="M66.1699 35.7887L70 33.5774L73.8301 35.7887V40.2113L70 42.4226L66.1699 40.2113V35.7887Z" stroke="#F09A38"/>
<path d="M71.1699 44.7887L75 42.5774L78.8301 44.7887V49.2113L75 51.4226L71.1699 49.2113V44.7887Z" stroke="#F09A38"/>
<path d="M61.1699 44.7887L65 42.5774L68.8301 44.7887V49.2113L65 51.4226L61.1699 49.2113V44.7887Z" stroke="#F09A38"/>
<path d="M81.1699 45.7887L85 43.5774L88.8301 45.7887V50.2113L85 52.4226L81.1699 50.2113V45.7887Z" stroke="#F09A38"/>
<path d="M86.1699 54.7887L90 52.5774L93.8301 54.7887V59.2113L90 61.4226L86.1699 59.2113V54.7887Z" stroke="#F09A38"/>
<path opacity="0.25" d="M76.1699 54.7887L80 52.5774L83.8301 54.7887V59.2113L80 61.4226L76.1699 59.2113V54.7887Z" stroke="#F09A38"/>
<path d="M96.1699 36.7887L100 34.5774L103.83 36.7887V41.2113L100 43.4226L96.1699 41.2113V36.7887Z" stroke="#F09A38"/>
<path d="M101.17 45.7887L105 43.5774L108.83 45.7887V50.2113L105 52.4226L101.17 50.2113V45.7887Z" stroke="#F09A38"/>
<path opacity="0.25" d="M91.1699 45.7887L95 43.5774L98.8301 45.7887V50.2113L95 52.4226L91.1699 50.2113V45.7887Z" stroke="#F09A38"/>
<path opacity="0.25" d="M96.1699 54.7887L100 52.5774L103.83 54.7887V59.2113L100 61.4226L96.1699 59.2113V54.7887Z" stroke="#F09A38"/>
<path opacity="0.25" d="M101.17 63.7887L105 61.5774L108.83 63.7887V68.2113L105 70.4226L101.17 68.2113V63.7887Z" stroke="#F09A38"/>
<path d="M91.1699 63.7887L95 61.5774L98.8301 63.7887V68.2113L95 70.4226L91.1699 68.2113V63.7887Z" stroke="#F09A38"/>
<path opacity="0.25" d="M111.17 45.7887L115 43.5774L118.83 45.7887V50.2113L115 52.4226L111.17 50.2113V45.7887Z" stroke="#F09A38"/>
<path opacity="0.25" d="M116.17 54.7887L120 52.5774L123.83 54.7887V59.2113L120 61.4226L116.17 59.2113V54.7887Z" stroke="#F09A38"/>
<path d="M106.17 54.7887L110 52.5774L113.83 54.7887V59.2113L110 61.4226L106.17 59.2113V54.7887Z" stroke="#F09A38"/>
<path opacity="0.25" d="M81.1699 63.7887L85 61.5774L88.8301 63.7887V68.2113L85 70.4226L81.1699 68.2113V63.7887Z" stroke="#F09A38"/>
<path d="M86.1699 72.7887L90 70.5774L93.8301 72.7887V77.2113L90 79.4226L86.1699 77.2113V72.7887Z" stroke="#F09A38"/>
<path opacity="0.25" d="M76.1699 72.7887L80 70.5774L83.8301 72.7887V77.2113L80 79.4226L76.1699 77.2113V72.7887Z" stroke="#F09A38"/>
<path d="M66.1699 54.7887L70 52.5774L73.8301 54.7887V59.2113L70 61.4226L66.1699 59.2113V54.7887Z" stroke="#F09A38"/>
<path d="M71.1699 63.7887L75 61.5774L78.8301 63.7887V68.2113L75 70.4226L71.1699 68.2113V63.7887Z" stroke="#F09A38"/>
<path opacity="0.25" d="M61.1699 63.7887L65 61.5774L68.8301 63.7887V68.2113L65 70.4226L61.1699 68.2113V63.7887Z" stroke="#F09A38"/>
<g opacity="0.15">
<path opacity="0.25" d="M51.1699 45.7887L55 43.5774L58.8301 45.7887V50.2113L55 52.4226L51.1699 50.2113V45.7887Z" stroke="#F09A38"/>
<path opacity="0.25" d="M56.1699 54.7887L60 52.5774L63.8301 54.7887V59.2113L60 61.4226L56.1699 59.2113V54.7887Z" stroke="#F09A38"/>
<path d="M46.1699 54.7887L50 52.5774L53.8301 54.7887V59.2113L50 61.4226L46.1699 59.2113V54.7887Z" stroke="#F09A38"/>
</g>
</g>
</svg>
