<svg width="21" height="21" viewBox="0 0 21 21" fill="none" xmlns="http://www.w3.org/2000/svg">
<g clip-path="url(#clip0_28_13993)">
<path d="M11.3301 7.2767L9.66992 6.7233C10.339 4.71594 11.4124 3.46373 12.9128 3.08863C13.4498 2.95437 14.1757 2.31819 14.5771 1.68645C14.8363 1.27856 15.2668 0.875 15.75 0.875C16.2333 0.875 16.6272 1.2746 16.4732 1.73267C16.0178 3.0877 14.6153 4.46686 13.3372 4.78637C12.5043 4.9946 11.8277 5.78406 11.3301 7.2767Z" fill="#A98B89"/>
<path fill-rule="evenodd" clip-rule="evenodd" d="M6.84075 6.12499H14.1773C15.3639 5.88829 16.5808 6.49882 17.0857 7.63039L20.0814 14.3447C20.5333 15.3576 20.2998 16.5452 19.4982 17.3116L19.1093 17.6834C19.0915 17.7005 19.0733 17.7173 19.0549 17.7338C18.1042 18.5861 16.6425 18.5063 15.7902 17.5556L13.387 14.875H7.7565L5.35334 17.5556C4.50102 18.5063 3.03936 18.5861 2.08863 17.7338C2.07022 17.7173 2.05208 17.7005 2.0342 17.6834L1.6255 17.2926C0.833627 16.5355 0.595241 15.3662 1.02752 14.3595L3.90379 7.66141C4.3999 6.50608 5.63588 5.87792 6.84075 6.12499ZM7.00001 12.25C7.96651 12.25 8.75001 11.4665 8.75001 10.5C8.75001 9.53349 7.96651 8.74999 7.00001 8.74999C6.03351 8.74999 5.25001 9.53349 5.25001 10.5C5.25001 11.4665 6.03351 12.25 7.00001 12.25ZM14.875 10.5C15.3583 10.5 15.75 10.1082 15.75 9.62499C15.75 9.14174 15.3583 8.74999 14.875 8.74999C14.3918 8.74999 14 9.14174 14 9.62499C14 10.1082 14.3918 10.5 14.875 10.5ZM13.125 12.25C13.6083 12.25 14 11.8582 14 11.375C14 10.8917 13.6083 10.5 13.125 10.5C12.6418 10.5 12.25 10.8917 12.25 11.375C12.25 11.8582 12.6418 12.25 13.125 12.25Z" fill="#A98B89"/>
</g>
<defs>
<clipPath id="clip0_28_13993">
<rect width="21" height="21" fill="white"/>
</clipPath>
</defs>
</svg>
