<svg width="21" height="21" viewBox="0 0 21 21" fill="none" xmlns="http://www.w3.org/2000/svg">
<path d="M16.625 14V10.5C16.625 7.11726 13.8827 4.375 10.5 4.375C7.11726 4.375 4.375 7.11726 4.375 10.5V14H16.625ZM18.375 14H2.625V10.5C2.625 6.15076 6.15076 2.625 10.5 2.625C14.8492 2.625 18.375 6.15076 18.375 10.5V14Z" fill="#A98B89"/>
<path fill-rule="evenodd" clip-rule="evenodd" d="M4.375 12.25H5.25C6.2165 12.25 7 13.0335 7 14V16.625C7 17.5915 6.2165 18.375 5.25 18.375H4.375C3.4085 18.375 2.625 17.5915 2.625 16.625V14C2.625 13.0335 3.4085 12.25 4.375 12.25ZM15.75 12.25H16.625C17.5915 12.25 18.375 13.0335 18.375 14V16.625C18.375 17.5915 17.5915 18.375 16.625 18.375H15.75C14.7835 18.375 14 17.5915 14 16.625V14C14 13.0335 14.7835 12.25 15.75 12.25Z" fill="#A98B89"/>
</svg>
