<svg width="14" height="12" viewBox="0 0 14 12" fill="none" xmlns="http://www.w3.org/2000/svg">
<path d="M13.8946 1.69078C13.463 1.87668 13.0093 2.00614 12.5446 2.07594C12.7619 2.03866 13.0815 1.64729 13.2087 1.48888C13.402 1.24993 13.5494 0.97715 13.6432 0.684395C13.6432 0.662652 13.6649 0.631591 13.6432 0.61606C13.6323 0.610079 13.62 0.606945 13.6075 0.606945C13.595 0.606945 13.5828 0.610079 13.5718 0.61606C13.0673 0.88953 12.5303 1.09825 11.9736 1.23728C11.9542 1.24322 11.9335 1.24375 11.9139 1.23882C11.8942 1.2339 11.8762 1.2237 11.8619 1.20933C11.8185 1.15768 11.7719 1.10892 11.7222 1.06334C11.4952 0.85972 11.2375 0.693063 10.9588 0.569468C10.5825 0.414963 10.1761 0.348049 9.77021 0.373782C9.37637 0.398677 8.99186 0.504407 8.64058 0.684395C8.29467 0.874155 7.99066 1.13195 7.74682 1.44229C7.49032 1.76171 7.30514 2.1324 7.20373 2.52943C7.12011 2.90709 7.11062 3.29742 7.1758 3.6787C7.1758 3.74393 7.1758 3.75324 7.11994 3.74393C4.90724 3.41778 3.09177 2.63193 1.60836 0.945309C1.54319 0.870762 1.50905 0.870762 1.4563 0.945309C0.810796 1.92684 1.12424 3.47991 1.93111 4.24712C2.03973 4.34962 2.15145 4.44902 2.26938 4.5422C1.89943 4.51591 1.53852 4.41557 1.20803 4.24712C1.14596 4.20674 1.11182 4.22848 1.10872 4.30303C1.09992 4.40638 1.09992 4.51029 1.10872 4.61364C1.17347 5.10894 1.36849 5.57814 1.67384 5.97326C1.97919 6.36839 2.38391 6.67525 2.8466 6.86247C2.9594 6.91083 3.07693 6.94727 3.19728 6.97119C2.8548 7.03867 2.50355 7.04917 2.15766 7.00225C2.08318 6.98672 2.05525 7.0271 2.08318 7.09854C2.53937 8.34099 3.52934 8.71994 4.25553 8.93115C4.35484 8.94668 4.45415 8.94668 4.56587 8.97153C4.56587 8.97153 4.56587 8.97153 4.54725 8.99017C4.33311 9.38154 3.46728 9.64556 3.07005 9.78223C2.345 10.0429 1.57196 10.1425 0.804589 10.0742C0.683558 10.0556 0.655628 10.0587 0.624594 10.0742C0.593561 10.0897 0.624594 10.1239 0.658731 10.155C0.813899 10.2575 0.969068 10.3475 1.13044 10.4345C1.61086 10.6968 2.11875 10.9051 2.64488 11.0557C5.36964 11.8074 8.43576 11.2545 10.4809 9.22002C12.0884 7.62347 12.6532 5.42123 12.6532 3.21589C12.6532 3.13202 12.7556 3.08232 12.8146 3.03884C13.2213 2.72167 13.5799 2.3471 13.8791 1.92684C13.9309 1.8642 13.9574 1.78444 13.9535 1.7032C13.9535 1.65661 13.9535 1.66593 13.8946 1.69078Z" fill="#33CCFF"/>
</svg>
