<svg width="20" height="20" viewBox="0 0 20 20" fill="none" xmlns="http://www.w3.org/2000/svg">
<path d="M10.0003 9.16667C8.15938 9.16667 6.66699 7.67428 6.66699 5.83333C6.66699 3.99238 8.15938 2.5 10.0003 2.5C11.8413 2.5 13.3337 3.99238 13.3337 5.83333C13.3337 7.67428 11.8413 9.16667 10.0003 9.16667Z" fill="#151416"/>
<path d="M2.50054 16.8327C2.82355 12.8554 6.05159 10.8333 9.98612 10.8333C13.976 10.8333 17.2541 12.7443 17.4983 16.8333C17.508 16.9962 17.4983 17.5 16.8722 17.5C13.7843 17.5 9.1956 17.5 3.10625 17.5C2.89726 17.5 2.48295 17.0493 2.50054 16.8327Z" fill="#151416"/>
</svg>
