<svg width="14" height="14" viewBox="0 0 14 14" fill="none" xmlns="http://www.w3.org/2000/svg">
<path opacity="0.3" d="M11.9585 8.16669C12.4417 8.16669 12.8335 7.77494 12.8335 7.29169C12.8335 6.80844 12.4417 6.41669 11.9585 6.41669C11.4752 6.41669 11.0835 6.80844 11.0835 7.29169C11.0835 7.77494 11.4752 8.16669 11.9585 8.16669Z" fill="#151416"/>
<path opacity="0.3" d="M10.9792 0.611723L1.96385 3.02737C1.65266 3.11075 1.46799 3.43061 1.55137 3.7418L2.30626 6.55909C2.38964 6.87027 2.7095 7.05495 3.02069 6.97156L12.036 4.55592C12.3472 4.47254 12.5319 4.15267 12.4485 3.84149L11.6936 1.0242C11.6102 0.713013 11.2903 0.52834 10.9792 0.611723Z" fill="#151416"/>
<path fill-rule="evenodd" clip-rule="evenodd" d="M12.8332 5.44646C12.568 5.32047 12.2713 5.24998 11.9582 5.24998C10.8306 5.24998 9.9165 6.16406 9.9165 7.29165C9.9165 8.41923 10.8306 9.33331 11.9582 9.33331C12.2713 9.33331 12.568 9.26282 12.8332 9.13684V10.5C12.8332 11.1443 12.3108 11.6666 11.6665 11.6666H2.33317C1.68884 11.6666 1.1665 11.1443 1.1665 10.5V3.49998C1.1665 2.85565 1.68884 2.33331 2.33317 2.33331H11.6665C12.3108 2.33331 12.8332 2.85565 12.8332 3.49998V5.44646Z" fill="#151416"/>
</svg>
