<svg width="15" height="18" viewBox="0 0 15 18" fill="none" xmlns="http://www.w3.org/2000/svg">
<path fill-rule="evenodd" clip-rule="evenodd" d="M7.1775 0.247991L0.5 1.50002V9.62265C0.5 12.1902 1.8227 14.5767 4 15.9375L7.03625 17.8352C7.31999 18.0125 7.68001 18.0125 7.96375 17.8352L11 15.9375C13.1773 14.5767 14.5 12.1902 14.5 9.62265V1.50002L7.8225 0.247991C7.60936 0.208026 7.39064 0.208026 7.1775 0.247991ZM6.1911 10.6547C6.3588 10.8224 6.56844 10.9062 6.77808 10.9062C6.98771 10.9062 7.19735 10.8224 7.36506 10.6547L10.7192 7.30052C11.0546 6.9651 11.0546 6.46198 10.7192 6.12656C10.3838 5.79115 9.88068 5.79115 9.54526 6.12656L6.77808 8.89375L5.68797 7.80365C5.39448 7.46823 4.84943 7.46823 4.51401 7.80365C4.1786 8.13906 4.1786 8.64219 4.51401 8.9776L6.1911 10.6547Z" fill="#A98B89"/>
</svg>
