<svg width="13" height="10" viewBox="0 0 13 10" fill="none" xmlns="http://www.w3.org/2000/svg">
<path d="M12.8705 1.97285C12.8705 1.97285 12.7436 1.07656 12.3525 0.683008C11.8574 0.165039 11.3039 0.1625 11.05 0.132031C9.23203 -7.26432e-08 6.50254 0 6.50254 0H6.49746C6.49746 0 3.76797 -7.26432e-08 1.95 0.132031C1.69609 0.1625 1.14258 0.165039 0.647461 0.683008C0.256445 1.07656 0.132031 1.97285 0.132031 1.97285C0.132031 1.97285 0 3.02656 0 4.07773V5.06289C0 6.11406 0.129492 7.16777 0.129492 7.16777C0.129492 7.16777 0.256445 8.06406 0.644922 8.45762C1.14004 8.97559 1.79004 8.95781 2.07949 9.01367C3.12051 9.1127 6.5 9.14316 6.5 9.14316C6.5 9.14316 9.23203 9.13809 11.05 9.00859C11.3039 8.97813 11.8574 8.97559 12.3525 8.45762C12.7436 8.06406 12.8705 7.16777 12.8705 7.16777C12.8705 7.16777 13 6.1166 13 5.06289V4.07773C13 3.02656 12.8705 1.97285 12.8705 1.97285ZM5.15684 6.25879V2.60508L8.66836 4.43828L5.15684 6.25879Z" fill="#FF4F4E"/>
</svg>
